<?xml version="1.0" standalone="no"?>
<!DOCTYPE svg PUBLIC "-//W3C//DTD SVG 20010904//EN"
 "http://www.w3.org/TR/2001/REC-SVG-20010904/DTD/svg10.dtd">
<svg version="1.0" xmlns="http://www.w3.org/2000/svg"
 width="194.000000pt" height="194.000000pt" viewBox="0 0 194.000000 194.000000"
 preserveAspectRatio="xMidYMid meet">
<metadata>
Created by potrace 1.11, written by Peter Selinger 2001-2013
</metadata>
<g transform="translate(0.000000,194.000000) scale(0.100000,-0.100000)"
fill="#000000" stroke="none">
<path d="M390 1579 c-53 -16 -56 -26 -10 -33 52 -8 116 -65 130 -114 13 -49
13 -914 0 -962 -14 -50 -69 -100 -127 -115 l-48 -13 30 -12 c84 -33 191 -20
249 30 l33 29 28 -29 c49 -51 188 -65 241 -25 18 14 18 14 -4 15 -52 0 -111
50 -131 109 -6 19 -11 86 -11 150 l1 116 62 68 62 67 120 -157 c134 -175 164
-224 165 -269 0 -40 -17 -62 -64 -78 -38 -13 -38 -14 -17 -25 67 -36 189 -17
230 35 l19 25 47 -30 c78 -49 185 -64 253 -35 l37 16 -50 15 c-79 24 -189 144
-392 429 -95 133 -173 246 -175 252 -3 11 151 189 291 334 100 104 165 152
234 173 l42 13 -37 16 c-70 30 -179 14 -240 -35 l-37 -29 -15 29 c-27 51 -117
64 -202 30 l-29 -12 32 -8 c67 -19 92 -93 53 -157 -12 -19 -103 -129 -203
-245 l-182 -210 -3 238 c-2 224 -1 240 19 281 22 46 70 82 123 94 30 6 30 7
10 18 -35 19 -125 25 -172 13 -23 -7 -57 -25 -76 -41 l-33 -30 -19 21 c-10 12
-31 28 -47 35 -36 19 -142 26 -187 13z"/>
</g>
</svg>
