<svg id="Layer_2" data-name="Layer 2" xmlns="http://www.w3.org/2000/svg" viewBox="0 0 261.19 52.35"><defs><style>.cls-1{fill:#010101;}.cls-2{fill:#080808;fill-rule:evenodd;}</style></defs><polygon class="cls-1" points="196.03 25.12 198.1 25.12 199.63 30.02 199.65 30.02 201.19 25.12 203.26 25.12 203.26 31.58 202.02 31.58 202.02 26.25 202 26.25 200.26 31.58 199.03 31.58 197.29 26.25 197.27 26.27 197.27 31.58 196.03 31.58 196.03 25.12"/><rect class="cls-1" x="205.24" y="25.12" width="1.3" height="6.46"/><polygon class="cls-1" points="208.51 25.12 210.1 25.12 212.56 29.95 212.58 29.95 212.58 25.12 213.82 25.12 213.82 31.58 212.24 31.58 209.77 26.75 209.75 26.75 209.75 31.58 208.51 31.58 208.51 25.12"/><rect class="cls-1" x="215.89" y="25.12" width="1.29" height="6.46"/><path class="cls-1" d="M241.78,27.28a3.46,3.46,0,0,0-1.31-.28.9.9,0,0,0-1,.9c0,1.12,2.83.65,2.83,2.81,0,1.42-1.12,1.95-2.43,1.95a5.58,5.58,0,0,1-1.65-.25l.12-1.16a3.1,3.1,0,0,0,1.46.4c.49,0,1.15-.25,1.15-.84,0-1.23-2.83-.72-2.83-2.85,0-1.45,1.12-2,2.25-2a4.8,4.8,0,0,1,1.55.24Z" transform="translate(-19.24 -0.97)"/><polygon class="cls-1" points="224.88 26.14 223.09 26.14 223.09 25.12 227.96 25.12 227.96 26.14 226.17 26.14 226.17 31.58 224.88 31.58 224.88 26.14"/><polygon class="cls-1" points="228.78 25.12 232.6 25.12 232.6 26.14 230.08 26.14 230.08 27.73 232.38 27.73 232.38 28.75 230.08 28.75 230.08 30.56 232.62 30.56 232.62 31.58 228.78 31.58 228.78 25.12"/><path class="cls-1" d="M253.36,26.1h1.4c1.39,0,3-.05,3,1.74a1.48,1.48,0,0,1-1.33,1.5v0c.35,0,.56.38.69.67l1,2.52h-1.44l-.78-2c-.19-.48-.35-.67-.9-.67h-.41v2.68h-1.3V26.1Zm1.3,2.75h.42c.64,0,1.37-.09,1.37-.89s-.72-.85-1.37-.85h-.42Z" transform="translate(-19.24 -0.97)"/><path class="cls-1" d="M262.72,27.28a3.46,3.46,0,0,0-1.31-.28.9.9,0,0,0-1,.9c0,1.12,2.83.65,2.83,2.81,0,1.42-1.12,1.95-2.43,1.95a5.58,5.58,0,0,1-1.65-.25l.12-1.16a3.1,3.1,0,0,0,1.46.4c.49,0,1.15-.25,1.15-.84,0-1.23-2.83-.72-2.83-2.85,0-1.45,1.11-2,2.25-2a4.8,4.8,0,0,1,1.55.24Z" transform="translate(-19.24 -0.97)"/><polygon class="cls-1" points="245.82 26.14 244.03 26.14 244.03 25.12 248.9 25.12 248.9 26.14 247.12 26.14 247.12 31.58 245.82 31.58 245.82 26.14"/><polygon class="cls-1" points="248.29 25.12 249.68 25.12 251.33 30.19 251.35 30.19 252.99 25.12 254.27 25.12 252.1 31.58 250.51 31.58 248.29 25.12"/><path class="cls-1" d="M277.26,26a3,3,0,0,1,3.17,3.33,3,3,0,0,1-3.17,3.35c-2.07,0-3.16-1.38-3.16-3.35A3,3,0,0,1,277.26,26Zm0,5.67c1.33,0,1.82-1.18,1.82-2.34S278.55,27,277.26,27s-1.81,1.17-1.81,2.31S275.94,31.65,277.26,31.65Z" transform="translate(-19.24 -0.97)"/><polygon class="cls-1" points="196.03 33.62 197.33 33.62 197.33 36.4 199.66 33.62 201.25 33.62 198.59 36.66 201.36 40.08 199.66 40.08 197.35 37.08 197.33 37.08 197.33 40.08 196.03 40.08 196.03 33.62"/><path class="cls-1" d="M221.4,34.6h1.29v3.72c0,1.1.35,1.83,1.35,1.83s1.33-.73,1.33-1.83V34.6h1.3v4.12c0,1.73-1,2.44-2.63,2.44s-2.64-.71-2.64-2.44V34.6Z" transform="translate(-19.24 -0.97)"/><polygon class="cls-1" points="209.27 33.62 210.56 33.62 210.56 39.06 213 39.06 213 40.08 209.27 40.08 209.27 33.62"/><polygon class="cls-1" points="214.08 34.64 212.3 34.64 212.3 33.62 217.17 33.62 217.17 34.64 215.38 34.64 215.38 40.08 214.08 40.08 214.08 34.64"/><path class="cls-1" d="M237.19,34.6h1.29v3.72c0,1.1.35,1.83,1.34,1.83s1.34-.73,1.34-1.83V34.6h1.3v4.12c0,1.73-1,2.44-2.64,2.44s-2.63-.71-2.63-2.44V34.6Z" transform="translate(-19.24 -0.97)"/><path class="cls-1" d="M244.24,34.6h1.4c1.38,0,3-.05,3,1.74a1.48,1.48,0,0,1-1.33,1.5v0c.35,0,.55.38.68.67l1,2.52h-1.44l-.78-2c-.19-.48-.35-.67-.9-.67h-.41v2.68h-1.3Zm1.3,2.75H246c.64,0,1.37-.09,1.37-.89s-.72-.85-1.37-.85h-.42Z" transform="translate(-19.24 -0.97)"/><polygon class="cls-1" points="232.13 37.53 229.77 33.62 231.29 33.62 232.82 36.33 234.37 33.62 235.74 33.62 233.43 37.53 233.43 40.08 232.13 40.08 232.13 37.53"/><path class="cls-1" d="M207,27a15.89,15.89,0,0,0-14-8.31,16.06,16.06,0,0,0-3.86.47,15.89,15.89,0,0,0-12,13.94h0a14.66,14.66,0,0,0-.07,1.48,15.9,15.9,0,0,0,30.47,6.35,15.71,15.71,0,0,0,1.32-6.35A15.92,15.92,0,0,0,207,27Zm-.38,13.5a14.83,14.83,0,0,1-28.42-5.92c0-.46,0-.93.07-1.38a14.81,14.81,0,0,1,11.16-13,15,15,0,0,1,3.6-.44,14.82,14.82,0,0,1,14.82,14.82A14.64,14.64,0,0,1,206.63,40.5Z" transform="translate(-19.24 -0.97)"/><path class="cls-1" d="M200.13,39.5a8.6,8.6,0,0,1-3.06,2.7L195.39,39a4.89,4.89,0,0,1-2.34.58A5.07,5.07,0,0,1,188,34.5l0-.57-.91-.1c0,.23,0,.47,0,.71a5.82,5.82,0,0,0,4.76,5.73l-.19,2.81a7.48,7.48,0,0,1-.82-.18l-.3-.1-.49-.16-.33-.14-.43-.19-.33-.18-.39-.22a3.37,3.37,0,0,1-.31-.21l-.37-.25-.3-.25-.33-.28-.28-.27c-.1-.11-.21-.21-.3-.32a3.61,3.61,0,0,1-.25-.3l-.23-.27h0l-1.12.51a9.09,9.09,0,0,1-1.55-3.58,10.54,10.54,0,0,1-.18-2,9.94,9.94,0,0,1,6.31-9.21l.34.88a8.84,8.84,0,0,0-5.7,8.24,8.42,8.42,0,0,0,.61,3.22l.18-.06,1.33-.42a7.35,7.35,0,0,1-.54-2.74,7.22,7.22,0,0,1,7-7.21h.18a7.24,7.24,0,0,1,5.86,3l1.31-.89h0l2.67-1.89A12,12,0,0,0,181,34.58a11.74,11.74,0,0,0,.28,2.59,12,12,0,0,0,21.65,4.29Z" transform="translate(-19.24 -0.97)"/><path class="cls-1" d="M19.24,32.41v-.14h2a2.5,2.5,0,0,1,1.46.36,1.14,1.14,0,0,1,.5,1,1.28,1.28,0,0,1-.48,1A2.35,2.35,0,0,1,21.2,35a4.18,4.18,0,0,1-.51,0v1.35q0,.45.15.57a.88.88,0,0,0,.53.12v.15H19.24v-.15a1,1,0,0,0,.56-.17c.09-.08.13-.28.13-.58V33.1c0-.29-.05-.48-.15-.55A1,1,0,0,0,19.24,32.41Zm1.45,2.32a3.54,3.54,0,0,0,.48,0c.85,0,1.27-.37,1.27-1.12S22,32.56,21,32.56a.6.6,0,0,0-.29,0s-.06.11-.06.25Z" transform="translate(-19.24 -0.97)"/><path class="cls-1" d="M26.74,32.19h.16l1.85,4.25a1.65,1.65,0,0,0,.3.51.54.54,0,0,0,.35.11v.15H27.5v-.15a1,1,0,0,0,.42-.06.26.26,0,0,0,.1-.22,1.67,1.67,0,0,0-.14-.48l-.31-.71H25.64l-.37.89a.68.68,0,0,0-.05.26c0,.22.16.32.5.32v.15H24.24v-.15a.53.53,0,0,0,.48-.29,6.86,6.86,0,0,0,.46-.94Zm-1,3.09h1.72l-.86-2Z" transform="translate(-19.24 -0.97)"/><path class="cls-1" d="M30.45,37.06A.85.85,0,0,0,31,36.9a1.14,1.14,0,0,0,.17-.77v-3c0-.3-.05-.49-.16-.57a1.06,1.06,0,0,0-.53-.12v-.14h1.46L33.64,36l1.66-3.76h1.51v.14a.86.86,0,0,0-.53.15.76.76,0,0,0-.15.54v3.32c0,.26,0,.43.16.51a1,1,0,0,0,.52.13v.15H34.68v-.15a.82.82,0,0,0,.55-.15.78.78,0,0,0,.14-.54V32.92l-1.92,4.29h-.1l-1.88-4.12v3a1.27,1.27,0,0,0,.15.75.69.69,0,0,0,.54.18v.15H30.45v-.15Z" transform="translate(-19.24 -0.97)"/><path class="cls-1" d="M40.37,32.19h.16l1.85,4.25a1.65,1.65,0,0,0,.3.51.54.54,0,0,0,.35.11v.15h-1.9v-.15a1,1,0,0,0,.42-.06.24.24,0,0,0,.1-.22,1.67,1.67,0,0,0-.14-.48l-.31-.71H39.27l-.37.89a.68.68,0,0,0,0,.26c0,.22.16.32.5.32v.15H37.87v-.15a.53.53,0,0,0,.48-.29,6.86,6.86,0,0,0,.46-.94Zm-1,3.09h1.72l-.86-2Zm.76-3.46h-.3L41,30.72a.81.81,0,0,1,.15-.13.24.24,0,0,1,.16-.05.27.27,0,0,1,.19.06.23.23,0,0,1,.07.18.29.29,0,0,1-.06.17.77.77,0,0,1-.19.16Z" transform="translate(-19.24 -0.97)"/><path class="cls-1" d="M44.11,33.54l0-1.27H48.3l.05,1.27h-.17a1.27,1.27,0,0,0-.35-.8,1.08,1.08,0,0,0-.68-.18h-.54v3.81a.81.81,0,0,0,.12.52.5.5,0,0,0,.35.15l.22,0v.15H45.16v-.15l.19,0a.56.56,0,0,0,.4-.17,1,1,0,0,0,.1-.56V32.56h-.52a1,1,0,0,0-.79.27,1.7,1.7,0,0,0-.27.71Z" transform="translate(-19.24 -0.97)"/><path class="cls-1" d="M53.57,35.87V33.34a1.09,1.09,0,0,0-.18-.77.73.73,0,0,0-.51-.16v-.14h1.7v.14c-.29,0-.48.1-.56.24a1.47,1.47,0,0,0-.12.69v3.94h-.13l-3.3-4.07v2.92a1.27,1.27,0,0,0,.15.74.67.67,0,0,0,.53.19v.15h-1.7v-.15c.33,0,.53-.11.59-.26a1.81,1.81,0,0,0,.1-.67V32.81a1.35,1.35,0,0,0-.33-.32.52.52,0,0,0-.3-.08h-.06v-.14h1.23Z" transform="translate(-19.24 -0.97)"/><path class="cls-1" d="M55.69,37.06a.84.84,0,0,0,.55-.13.82.82,0,0,0,.14-.56V33.05a.76.76,0,0,0-.13-.48.84.84,0,0,0-.56-.16v-.14h2.13v.14c-.3,0-.49.07-.57.19a.88.88,0,0,0-.11.5v3.27a.72.72,0,0,0,.16.56.81.81,0,0,0,.52.13v.15H55.69Zm.79-5.24h-.3l1.11-1.1.15-.13a.24.24,0,0,1,.16-.05.27.27,0,0,1,.19.06.23.23,0,0,1,.07.18.29.29,0,0,1-.06.17.77.77,0,0,1-.19.16Z" transform="translate(-19.24 -0.97)"/><path class="cls-1" d="M59.06,37.06a.89.89,0,0,0,.52-.12c.11-.07.17-.26.17-.57V33.05c0-.27,0-.43-.16-.51a1,1,0,0,0-.53-.13v-.14H61.2v.14c-.29,0-.48.06-.56.16a.77.77,0,0,0-.13.53v1.5l1.38-1.27a3.83,3.83,0,0,0,.37-.4.5.5,0,0,0,.12-.29.2.2,0,0,0-.09-.17.88.88,0,0,0-.42-.06v-.14h2v.14a1.05,1.05,0,0,0-.59.15,2.49,2.49,0,0,0-.51.42l-1.44,1.43L63,36.26a5.06,5.06,0,0,0,.7.66.81.81,0,0,0,.47.14v.15H61.91v-.15a1.92,1.92,0,0,0,.39,0,.14.14,0,0,0,.13-.15c0-.19-.33-.62-1-1.29l-.73-.76-.18.17v1.37c0,.3.06.5.2.58a1,1,0,0,0,.49.11v.15H59.06v-.15Z" transform="translate(-19.24 -0.97)"/><path class="cls-1" d="M23.42,43.88V41.35a1.09,1.09,0,0,0-.18-.77.73.73,0,0,0-.51-.16v-.14h1.7v.14a.66.66,0,0,0-.56.25,1.42,1.42,0,0,0-.12.68v3.94h-.13l-3.3-4.07v2.93a1.26,1.26,0,0,0,.15.73.7.7,0,0,0,.53.2v.14H19.3v-.14c.33,0,.53-.12.59-.27a1.75,1.75,0,0,0,.1-.66V40.83a1.25,1.25,0,0,0-.33-.33.52.52,0,0,0-.3-.08H19.3v-.14h1.23Z" transform="translate(-19.24 -0.97)"/><path class="cls-1" d="M27.15,40.2h.15l1.86,4.25a1.33,1.33,0,0,0,.3.51.51.51,0,0,0,.34.11v.15H27.9v-.15a1,1,0,0,0,.42-.06.23.23,0,0,0,.1-.22,1.36,1.36,0,0,0-.14-.47L28,43.6H26l-.37.89,0,.14a.74.74,0,0,0,0,.12c0,.22.17.32.5.32v.15H24.65v-.15a.55.55,0,0,0,.48-.29,8.29,8.29,0,0,0,.46-.94Zm-1,3.1h1.73l-.86-2Zm.76-3.47h-.3l1.11-1.1a.83.83,0,0,1,.16-.13.24.24,0,0,1,.16-.05.29.29,0,0,1,.19.06.23.23,0,0,1,.07.18.23.23,0,0,1-.07.17.57.57,0,0,1-.18.16Z" transform="translate(-19.24 -0.97)"/><path class="cls-1" d="M30,45.08a.75.75,0,0,0,.55-.19.87.87,0,0,0,.14-.57v-3.2a.88.88,0,0,0-.11-.5.52.52,0,0,0-.4-.18l-.18,0v-.14h2.13a2.39,2.39,0,0,1,1.38.34,1.11,1.11,0,0,1,.5,1,1.09,1.09,0,0,1-.35.84,2,2,0,0,1-1,.41l1.49,1.82a1.32,1.32,0,0,0,.29.29.82.82,0,0,0,.41.14v.14h-1.2l-1.78-2.31-.41,0v1.45a.77.77,0,0,0,.13.5.78.78,0,0,0,.56.2v.14H30v-.14Zm1.45-2.44h.09c1.11,0,1.66-.36,1.66-1.06s-.42-1-1.25-1h-.1a.62.62,0,0,0-.33.06.29.29,0,0,0-.07.23v1.78Z" transform="translate(-19.24 -0.97)"/><path class="cls-1" d="M35.11,42.77a2.67,2.67,0,0,1,.66-1.85,2.24,2.24,0,0,1,1.77-.75,2.35,2.35,0,0,1,1.72.7A2.52,2.52,0,0,1,40,42.75a2.65,2.65,0,0,1-.67,1.84,2.26,2.26,0,0,1-1.76.73,2.37,2.37,0,0,1-1.74-.7A2.54,2.54,0,0,1,35.11,42.77Zm.85,0a2.94,2.94,0,0,0,.42,1.66,1.4,1.4,0,0,0,2.3,0,2.66,2.66,0,0,0,.44-1.67,2.9,2.9,0,0,0-.43-1.69,1.32,1.32,0,0,0-1.16-.62,1.35,1.35,0,0,0-1.13.58A2.76,2.76,0,0,0,36,42.75Z" transform="translate(-19.24 -0.97)"/><path class="cls-1" d="M40.31,40.28h2a3.45,3.45,0,0,1,2.17.61,2.23,2.23,0,0,1,.79,1.87,2.32,2.32,0,0,1-.73,1.76,2.91,2.91,0,0,1-2.09.7H40.31v-.14a.88.88,0,0,0,.55-.17.78.78,0,0,0,.14-.53V41.12c0-.32-.06-.51-.18-.58a1.12,1.12,0,0,0-.51-.12v-.14Zm1.45,4.3a.36.36,0,0,0,.08.27.47.47,0,0,0,.3.08h0c1.51,0,2.27-.72,2.27-2.17a2.19,2.19,0,0,0-.59-1.6,2.37,2.37,0,0,0-1.75-.59c-.16,0-.26,0-.3.07a.34.34,0,0,0-.06.22v3.72Z" transform="translate(-19.24 -0.97)"/><path class="cls-1" d="M49.83,43.88V41.35a1.09,1.09,0,0,0-.18-.77.71.71,0,0,0-.51-.16v-.14h1.71v.14a.67.67,0,0,0-.57.25,1.42,1.42,0,0,0-.12.68v3.94H50l-3.3-4.07v2.93a1.26,1.26,0,0,0,.15.73.71.71,0,0,0,.54.2v.14H45.71v-.14c.33,0,.53-.12.59-.27a1.57,1.57,0,0,0,.1-.66V40.83a1.25,1.25,0,0,0-.33-.33.51.51,0,0,0-.29-.08h-.07v-.14H47Z" transform="translate(-19.24 -0.97)"/><path class="cls-1" d="M51.13,45.08a.91.91,0,0,0,.55-.14.83.83,0,0,0,.13-.56V41.06a.66.66,0,0,0-.13-.47.76.76,0,0,0-.55-.17v-.14h2.13v.14c-.31,0-.5.07-.58.19a1,1,0,0,0-.11.51v3.26a.75.75,0,0,0,.16.56.84.84,0,0,0,.53.14v.14H51.13Zm.78-5.25h-.3l1.11-1.1a.83.83,0,0,1,.16-.13.22.22,0,0,1,.16-.05.29.29,0,0,1,.19.06.27.27,0,0,1,.07.18.23.23,0,0,1-.07.17.57.57,0,0,1-.18.16Z" transform="translate(-19.24 -0.97)"/><path class="cls-1" d="M53.54,40.28h2.13v.14c-.31,0-.5.08-.57.19a1,1,0,0,0-.12.56v1.38h2.27V41.06c0-.28-.06-.45-.18-.52a1.06,1.06,0,0,0-.51-.12v-.14h2.13v.14a.73.73,0,0,0-.55.17.77.77,0,0,0-.14.53v3.32a.63.63,0,0,0,.15.5,1,1,0,0,0,.54.14v.14H56.56v-.14a1.12,1.12,0,0,0,.53-.12c.1-.08.16-.27.16-.58v-1.5H55v1.5a.72.72,0,0,0,.16.55.86.86,0,0,0,.53.15v.14H53.54v-.14a.87.87,0,0,0,.55-.16,1,1,0,0,0,.13-.6V41.06c0-.26,0-.43-.16-.51a1,1,0,0,0-.52-.13v-.14Z" transform="translate(-19.24 -0.97)"/><path class="cls-1" d="M59,42.77a2.67,2.67,0,0,1,.66-1.85,2.24,2.24,0,0,1,1.77-.75,2.37,2.37,0,0,1,1.72.7,2.52,2.52,0,0,1,.71,1.88,2.65,2.65,0,0,1-.67,1.84,2.26,2.26,0,0,1-1.76.73,2.37,2.37,0,0,1-1.74-.7A2.54,2.54,0,0,1,59,42.77Zm.85,0a3,3,0,0,0,.41,1.66,1.36,1.36,0,0,0,1.18.62,1.35,1.35,0,0,0,1.13-.58,2.66,2.66,0,0,0,.44-1.67,2.9,2.9,0,0,0-.43-1.69,1.32,1.32,0,0,0-1.16-.62,1.35,1.35,0,0,0-1.13.58A2.76,2.76,0,0,0,59.89,42.75Z" transform="translate(-19.24 -0.97)"/><path class="cls-1" d="M19.24,48.43v-.14h2a2.5,2.5,0,0,1,1.46.36,1.14,1.14,0,0,1,.5,1,1.32,1.32,0,0,1-.48,1,2.41,2.41,0,0,1-1.56.41,4.12,4.12,0,0,1-.51,0v1.35c0,.3,0,.5.15.57a1,1,0,0,0,.53.13v.14H19.24v-.14a1.08,1.08,0,0,0,.56-.18c.09-.08.13-.27.13-.58v-3.2c0-.3-.05-.49-.15-.56A1,1,0,0,0,19.24,48.43Zm1.45,2.32a3.43,3.43,0,0,0,.48,0c.85,0,1.27-.38,1.27-1.13S22,48.58,21,48.58c-.15,0-.25,0-.29.05s-.06.11-.06.24Z" transform="translate(-19.24 -0.97)"/><path class="cls-1" d="M23.27,53.09a.86.86,0,0,0,.56-.14.83.83,0,0,0,.13-.56V49.07a.66.66,0,0,0-.13-.47.77.77,0,0,0-.56-.17v-.14h2.14v.14a.74.74,0,0,0-.58.19,1,1,0,0,0-.11.51v3.26a.73.73,0,0,0,.16.57.91.91,0,0,0,.53.13v.14H23.27Zm.79-5.25h-.3l1.11-1.1a1.53,1.53,0,0,1,.16-.13.28.28,0,0,1,.16,0,.23.23,0,0,1,.26.24.23.23,0,0,1-.07.17.57.57,0,0,1-.18.16Z" transform="translate(-19.24 -0.97)"/><path class="cls-1" d="M25.68,51.76h.16A1.69,1.69,0,0,0,27.4,53a1,1,0,0,0,.64-.23.79.79,0,0,0,.26-.62.85.85,0,0,0-.26-.62,4.36,4.36,0,0,0-.9-.61,3.4,3.4,0,0,1-1-.77,1.28,1.28,0,0,1-.23-.72,1.25,1.25,0,0,1,.36-.92,1.37,1.37,0,0,1,1-.36,1.72,1.72,0,0,1,.59.12,1.46,1.46,0,0,0,.43.13.21.21,0,0,0,.17-.07.25.25,0,0,0,.08-.18h.16l.16,1.56h-.16a1.7,1.7,0,0,0-.47-.87,1.21,1.21,0,0,0-.93-.4.84.84,0,0,0-.54.18.63.63,0,0,0-.22.52.83.83,0,0,0,.3.6,4.71,4.71,0,0,0,.88.61,3.64,3.64,0,0,1,1.07.83,1.33,1.33,0,0,1,.25.76,1.27,1.27,0,0,1-.44,1,1.56,1.56,0,0,1-1.13.4,2,2,0,0,1-.72-.13,2.27,2.27,0,0,0-.46-.13c-.14,0-.22.09-.23.25H25.9Z" transform="translate(-19.24 -0.97)"/><path class="cls-1" d="M29.35,53.09a.87.87,0,0,0,.52-.15.79.79,0,0,0,.17-.61V49.07a.59.59,0,0,0-.17-.5,1,1,0,0,0-.52-.14v-.14h4l0,1h-.17a.89.89,0,0,0-.34-.62,1.63,1.63,0,0,0-.78-.13H31a.24.24,0,0,0-.19.06.43.43,0,0,0-.05.24v1.61h1.15a1,1,0,0,0,.62-.14.94.94,0,0,0,.22-.55H33v1.68h-.17a.77.77,0,0,0-.23-.55,1.26,1.26,0,0,0-.68-.15H30.79v1.69c0,.08,0,.16,0,.23a.3.3,0,0,0,0,.15s.12.06.28.07l.46,0h.32A2,2,0,0,0,33,52.69a1.57,1.57,0,0,0,.55-.74h.17l-.33,1.28H29.35v-.14Z" transform="translate(-19.24 -0.97)"/><path class="cls-1" d="M33.76,53.09a.84.84,0,0,0,.51-.17c.11-.1.17-.35.17-.76v-3q0-.47-.15-.57a1,1,0,0,0-.53-.13v-.14h1.45l1.73,3.76,1.66-3.76h1.52v.14a.81.81,0,0,0-.54.16.73.73,0,0,0-.15.54v3.32c0,.26,0,.43.16.51a1.1,1.1,0,0,0,.53.13v.14H38v-.14a.9.9,0,0,0,.56-.16.79.79,0,0,0,.13-.54V49l-1.91,4.28h-.11l-1.88-4.11v3a1.17,1.17,0,0,0,.16.74.63.63,0,0,0,.53.19v.14h-1.7v-.14Z" transform="translate(-19.24 -0.97)"/><path class="cls-1" d="M44.28,51.89V49.36a1.11,1.11,0,0,0-.18-.77.73.73,0,0,0-.51-.16v-.14h1.7v.14a.66.66,0,0,0-.56.25,1.42,1.42,0,0,0-.12.68V53.3h-.13l-3.3-4.07v2.93a1.26,1.26,0,0,0,.15.73.67.67,0,0,0,.53.2v.14h-1.7v-.14c.33,0,.53-.12.59-.27a1.75,1.75,0,0,0,.1-.66V48.84a1.25,1.25,0,0,0-.33-.33.61.61,0,0,0-.3-.08h-.06v-.14h1.23Z" transform="translate(-19.24 -0.97)"/><path class="cls-1" d="M45.37,53.09a.56.56,0,0,0,.69-.7V49.07a.71.71,0,0,0-.13-.47.79.79,0,0,0-.56-.17v-.14H47.5v.14a.73.73,0,0,0-.57.19.92.92,0,0,0-.11.51v3.26A.73.73,0,0,0,47,53a.88.88,0,0,0,.52.13v.14H45.37Z" transform="translate(-19.24 -0.97)"/><path class="cls-1" d="M52.06,52.23l.13.13a2.31,2.31,0,0,1-.86.7,2.53,2.53,0,0,1-1.15.27,2.4,2.4,0,0,1-1.82-.7,2.57,2.57,0,0,1-.68-1.87,2.6,2.6,0,0,1,.69-1.83,2.37,2.37,0,0,1,1.84-.74,2.91,2.91,0,0,1,.83.11,3.6,3.6,0,0,0,.48.12.3.3,0,0,0,.33-.23H52l.07,1.68h-.16a1.81,1.81,0,0,0-.59-1,1.64,1.64,0,0,0-2.31.24,2.69,2.69,0,0,0-.48,1.7,2.35,2.35,0,0,0,.52,1.65,1.74,1.74,0,0,0,1.33.56A2.31,2.31,0,0,0,52.06,52.23Z" transform="translate(-19.24 -0.97)"/><path class="cls-1" d="M52.36,49.57l0-1.28h4.15l0,1.28h-.17a1.39,1.39,0,0,0-.35-.81,1.08,1.08,0,0,0-.68-.18h-.54v3.81a.81.81,0,0,0,.12.52.5.5,0,0,0,.35.15l.21,0v.14H53.42v-.14l.19,0a.56.56,0,0,0,.4-.17,1.12,1.12,0,0,0,.1-.56V48.58h-.52a1,1,0,0,0-.79.27,1.51,1.51,0,0,0-.27.72Z" transform="translate(-19.24 -0.97)"/><path class="cls-1" d="M56.68,48.43v-.14h2v.14h-.17a.55.55,0,0,0-.31.08.26.26,0,0,0-.08.19,1,1,0,0,0,0,.12c0,.06,0,.13.07.2l1.33,3,1.08-2.74a1.68,1.68,0,0,0,.14-.52.31.31,0,0,0-.1-.23.8.8,0,0,0-.45-.11v-.14h1.53v.14a.6.6,0,0,0-.38.13,1.44,1.44,0,0,0-.27.49L59.4,53.3h-.11l-1.83-4.09a2,2,0,0,0-.38-.64A.71.71,0,0,0,56.68,48.43Z" transform="translate(-19.24 -0.97)"/><path class="cls-1" d="M61.89,53.09a.85.85,0,0,0,.55-.14.83.83,0,0,0,.13-.56V49.07a.66.66,0,0,0-.13-.47.76.76,0,0,0-.55-.17v-.14H64v.14a.74.74,0,0,0-.58.19,1,1,0,0,0-.11.51v3.26a.77.77,0,0,0,.16.57.91.91,0,0,0,.53.13v.14H61.89Zm.78-5.25h-.3l1.11-1.1a1.53,1.53,0,0,1,.16-.13.28.28,0,0,1,.16,0,.23.23,0,0,1,.26.24A.23.23,0,0,1,64,47a.57.57,0,0,1-.18.16Z" transform="translate(-19.24 -0.97)"/><path class="cls-2" d="M54.58,24.77l.36,0,.07.1-.51.94-.26,0a1.16,1.16,0,0,1,.34-1m-1.07-.07.45,0,.16.27c-.12.44-.24.78-.78.92l-.11-1Zm-12.35-.78c-.06.79,0,1.42-.84,1.71l.43-1c-.85-.59-.93.47-1,1.08l.26.2-.73.21.29-.42-.42-.38c-.22-.73.88-1,1.42-1.14l-.06-.36-.33-.47-.9.21c.63-1.37,1.25-.09,1.84.39m13.36-.74L55,24.27c-.74.39-1.14-.26-1.09-1Zm.81-.13.26.11-.11.35-.26-.11ZM38.13,21.14v.09a2.09,2.09,0,0,0,.46,2.34l.52.21-.63,0c-.4-.56-1.45-2.31-.35-2.68m16.53-.08.17.1v.09l-.26,1.22-.36.06a2.09,2.09,0,0,1,.46-1.47m-5.73-1,.17.1,0,.44-.28.07-.25-.2,0-.26Zm6.36-.26c0,.44-.18,1.22-.71,1.1.12-.44.18-1.23.71-1.1m.89-.12.09.1-.23.69Zm-7.69-1h.08l.12.89-.54.05,0-.8ZM36.15,17.55l.93.87C37,19.56,36,20.29,35,20.75l-.26,1.05.68.57c.19-.16.29-.33.47-.41s.45-.05.64-.22.44-1.12.87-.91c-.11.35-.59.76-.53,1.2,0,.62.63,1.28.67,1.91-.6-.31-.73-1-1-1.58l-.91.29c0,.7.29.9.51,1.54s-.14.7.45,1.36l.26,0,.21-.43.78.41,0-.53.59.57.61.22a6,6,0,0,1-1.26.09c-.81,0-1.53.16-1.92-.66-.32-.56-.18-1.26-.41-1.72-.62-1.37-1.58-1.7-.6-3.05.57-.31,1.85-.75,1.73-1.73-.05-.54-.39-.74-.45-1.19m18.69,1c.4.64-.3,1.75-.53,2.44A8.25,8.25,0,0,1,53.63,23H52.47c-.07-.27.05-.7,0-.89-.15-.45-.48-.74-.46-1.09a5.26,5.26,0,0,1,0-1.68Zm1-.73L55.61,19l-.27.07c-.33-.46-.17-1.51.53-1.29M28.23,15.94V16l-.84.56c.2-.34.49-.68.85-.65m17.85,1.34.25.28,0,.26c-.66.49-.68.84-1.59,1l-.25-.19,0-.53-.17-.1a2.93,2.93,0,0,1-1.11.63c-.73.12-1.75-.57-2.45-.79-.43-.21-.79-.15-1.13-.44l.21-.42-1.6-.12,0-.53-.17-.1-1.71.14,0-.26a3.61,3.61,0,0,1,2.9-.59c.87.32,1.69,1.36,2.65,1.6,1.93.49,2.51,0,4.19.12m15.21-.36h.09c.14.45,0,.62-.25,1l-.27,0,.06-.88Zm-28-2a21,21,0,0,0-.61,2.26c0,.27.05.63,0,.89a8.68,8.68,0,0,0-1,.55c.2-.34.57-.49.77-.83.1-.17-.06-.45,0-.63,0-.44.23-.78.26-1.22a1.34,1.34,0,0,0-1,.11l0-.26c.55-.23,1-.81,1.58-.87m23.47,1.47.25.19v.09l-.56,1.73.28-.15L57.09,17l.27-.07.17.19.71,0c.24.46.31.73.84.86l.29-.34c.05-.7.59-.84,1.22-.8.27,1.17-.83,1.63-1.81,1.47l.17.28c.78.32,1.45-.34,2.25-.29.26,0,.59.4.85.5l-1.78,6.34-1.81.41a2.87,2.87,0,0,1,.3-1.75c.29-1.58,1.11-3.11,1.21-4.61l-.27.07-2,6.24-2.15.11c-.4-.74.33-2.19.55-2.88.31-1.75,1-3.29,1.34-5l-.19.16c-.34.95-.57,1.82-.92,2.86-.09.08,0,.62-.23.78s-.18,0-.35,0l0-.62-.59,2.08-.27.07c-.32-.55.09-1.32.3-1.83a10.22,10.22,0,0,1,.92-2.95c.14-.7,0-1.33.57-1.73m-1-.87.08.09-.14.71.45,0-.06.87-.28.16-.23-.54c-.48.41-1,1-1.66.76-.13-.71.32-.77.62-1.28a2.71,2.71,0,0,1,.33-.77Zm5.7.22.07.19-.27.15-.08-.27ZM23.44,13V13c-.32.77-.87,1-1.37,1.76-.48.41-.44,1.21-.75,1.72-.38-.92.58-1.91,1.25-2.57.3-.34.42-.86.88-1m.92-.38.08.09.31.73a6.08,6.08,0,0,1-.34,2.19c-.31.69-1,1.17-1,1.88,1,1,2.79-.25,3.72-.8l0,.26c-1,.55-2.33,1.43-3.57,1.25-1.93-.48-.43-2.77.59-3.32l0-.35-.34-.29c0-.44.2-1.49.57-1.64m-.71-.05,0,.18-.17-.11Zm37.27,3.31c-.22.52-.83.39-1.3.62s-.48.59-.68.84l-.34-.2-.21-.9L58,16.07l-.38.42-1.73-.91a2.85,2.85,0,0,1,2.49-1.07c.44,0,.59.48,1.11.7s1,.06,1.39.62M47.61,13.31A1.94,1.94,0,0,1,49,15.53c-.1.26-.29.33-.31.6l.45-.06c.4-.5-.07-1.51.5-1.91s2,1.29,2.09,1.92a1.73,1.73,0,0,1-.25,1.13l-1.22-.44c.14.54.76.58,1.08,1.14.65.93.22,2,.14,3.1,0,.36.4.56.56.93s0,.61-.16,1l.23.55-.63,0,.07.36.44,0a1.83,1.83,0,0,1,1.29-.62l.47,1c-.56.4-.93.55-1.16,1.25l-1.14-.35-.12.43c-1.63.42-1-1.13-1.65-1.79l-.39.32-.26,0c-.4-.64,0-1.05.2-1.66,0-.53-.11-.89-.08-1.33l.27-.07c.31.64.48,2.07,1.1,2.2-.07-.36-.11-1-.18-1.25-.22-.73-1.07-1.32-.76-2L50,20c-.15-.46-.66-.76-.71-1.29a2.51,2.51,0,0,1,.09-1.41,3.65,3.65,0,0,0-1.52,1.31l-.52-.13c-.39-.82.34-1.12.57-1.82-1.42-.1-1.42-2.75-.3-3.38M32,12.31c-1.23,1.06-2.31,2.4-3.54,3.47,0-.72,1.17-1.52,1.75-2s1.1-1.69,1.79-1.46m1.44-.08c-.43,1-2.93,2.27-2.23,3.82a11.71,11.71,0,0,0-1.43,2.56,5.25,5.25,0,0,1-2.52,1.51l.12-.35a4.39,4.39,0,0,0,1.95-1.1c.39-.51.45-1.3.84-1.8.21-.52.58-.58.61-1.11-.78-.32-1.48.78-2,1.27a8.28,8.28,0,0,1-2.06,1.36,14.89,14.89,0,0,1-2.82.78c-1.08.1-3-1-2.44-2.21.24.46.12.9.62,1.29a2.78,2.78,0,0,0,1.5.37c1.86.13,3.18-.76,4.68-1.8.38-.33.84-.56,1.22-.89.77-.83,1.63-1.66,2.4-2.49.4-.5.89-1.17,1.61-1.21M54,9.51c.83.94.69,1.55,1.16,2.64.13.54.63,1.11.41,1.71l-.7-.14c-.48-.83-.28-1.16-.42-1.79-.2-.9-.86-1.66-.81-2.45Zm-1.09-2.3.28,1.09-.36,0a1.49,1.49,0,0,1-.27-1.08ZM52.92,5l.27,0L52.8,6.77l-.34-.2A2.45,2.45,0,0,1,52.92,5m1-1.79.44,0,.41.56.53.13c-.42.85-1.3.7-1.88.13l.13-.61Zm-3-.39v.09h-.18Zm3.23-.21-.86.82-2-.58.06.36L51,3.63a1.07,1.07,0,0,0,.75.76l-.21-.81L53,3.69c.13.62-.71,1.19-.94,1.88a4.63,4.63,0,0,0,0,1.85,5.12,5.12,0,0,0,.87,1.66A12.5,12.5,0,0,1,54,11.81l-1-.07a5.7,5.7,0,0,0-.48-.83c-.32-.47-.77-.5-.91-1s-.46-2.33-.89-2.63L51,9c-.9.2-1.66-1.8-1.43-2.49.06-.8.8-1.27,1.28-1.77l-.43-1.54c-.57.5-.06,1,.07,1.6A3,3,0,0,0,49.1,6.07c-.3.51.28,2.32.7,2.79.25.28.68.49.93.78a13.86,13.86,0,0,1,.81,1.2c.07.18.52.22.68.4a11.26,11.26,0,0,1,.55,1.1c1,.07,1,.61,1.5,1.44.07.27.33.46.4.73l-.51.94c-.61-.31-.71-1.38-1.21-1.94-.24-.28-.78-.32-.94-.51a6.75,6.75,0,0,1-.74-.94c-.33-.38-1-.52-1.28-.8-.42-.38-.48-.91-.72-1.2-.41-.64-.58-2-1.12-1.93a7.53,7.53,0,0,0,.61,1.54,4.09,4.09,0,0,0,.92,2.1c.25.28.89.15,1.31.45s.4.65.74.94c.17.18.7.22,1,.5a9.78,9.78,0,0,1,1.16,2.56l-.46.15-.46,1.47-.36,0L52,17.07l.37-1.39-.45,0c-.31-.64-.85-1.92-1.64-2.06-.43-.21-.82.2-1.26.08-.68-.4-.93-.77-1.73-.82l-.89,1.26-.59-.49.05-.7-.44-.12c-.32-.55.15-.87.37-1.39l-.84.48a21.87,21.87,0,0,0-4.3.23c-.53,0-.9.11-1.35.08-.52-.21-.86-.42-.65-.93a9.81,9.81,0,0,1,1.62-.07,26.58,26.58,0,0,1,4.64,0c.58-.66,2.42-1.33,2.13-2.32l-.62-.14a2.93,2.93,0,0,1,.18-1.22c.23-.78,1.25-1.33,1-2.06l-.55.23-.16-.27.78-2.16c.46-.24,1-.91,1.49-.87.55-.14,1,.34,1.69,0l0-.53c.74-.39,1.13.52,1.86.3l.13-.69c.63-.05,1.59.28,1.26,1.15m.5.56c.33.29.79.23,1,.52.17.1,0,.45.31.64.5.48,1.38.63,2,1.29l0,.26-.89,1.18c-.69-.32-1.76-.22-1.48.78l1.25.09L55.65,9.45a1,1,0,0,1-.93-.78L55.77,9l.29-.33,0-.26-.61-.23-.31-.72c.21-.34.33-.87.87-.92.46-.23.79.15,1.27-.26l0-1-.86-.5-.11.35-2.66-.37-.11.26c.72,1.29.93.77,2.09.77L54.46,7.24l.15-.79-1.22-.53c-.11.35-.4.69-.24,1s.4.56.36,1.09l.89.15.15.36-.37.15-.12.53,1.16,1.23.2-.34.16.28a12.87,12.87,0,0,0,.49,3.22c-.57.49-1.21.8-1.27,1.59,1,.42,1.93-.84,2.93-1s1.3.54,2.18.78c.43.12,1.25,0,1.75.38.25.29.31.82.64,1.2l0,.26a1.69,1.69,0,0,0-.7,1l.33.37.63.05.15.27c-.46,1.56-1.09,2.94-1.48,4.59-.21.52-.43,2.27-.89,2.59-.28.16-.62,0-1,0a8.25,8.25,0,0,0-1.52.07c-.44,0-.64.22-.91.29s-.61-.21-.88-.23a2.43,2.43,0,0,0-1.9.39,1.57,1.57,0,0,0-1.08.1l.12-.43c-.35-.11-.63.13-1,.11s-.52-.21-.71-.14c-.53,0-.9.2-1.25.09s-.58-.66-.84-.85c-.32-.38-.85-.59-.91-1-.22-.64.25-1,.38-1.48s-.37-1.17-.6-1.72-.25-1.44-1-1.66c-.44-.21-1.07,0-1.52.07-1.35.08-3.76,0-4.76-1l-.64.23-.16-.28-.53,0-1.07,1.17,0,.44.52.21c.29-.25.81-1.27,1.06-1.16a3.77,3.77,0,0,1-1.64,1.74l-.06-.27-.35-.11L38,20.07l.21-.51c-.53,0-.73.3-1.19.45.21-.43.68-.75.89-1.27.23-.69-.89-1.3-1.29-1.95l-.26,0-.3.42c-.78-.32-1.1.46-1.59.95-.38.33-.82.3-1.11.64-.56.22-.69.92-1.17,1.33-.95.82-4.1,1.22-2.81,3.16l1.52,0,.24.37-.44,0-.2.25.15.46.43.12.31-.51a1.34,1.34,0,0,1,.07,1.51l-.24-.37-.36.06-.19.16-.24-.37a1.23,1.23,0,0,0-.84.47l.14.54.72-.12.6.4c-.18.07-1.71.23-1.71.23-.35-.11-.52-.3-.87-.33s-1.27.18-1.61,0-.22-.64-.48-.74c-.34-.29-.78-.41-.83-.95A2.13,2.13,0,0,1,26,23.13a15.22,15.22,0,0,0,.55-2.7l.28-.25.17.19a24.77,24.77,0,0,0-.54,2.53c-.23.78-.7,1.1-.4,1.92l.35.11.19-.17c0-.44.15-.87.68-.75-.14.7-.7,1-.3,1.75l.89,0-.06-.45.27-.07c.34.38.41.65.95.51.23-.69.77-.83,1.34-1.23l-.56-.93a1.67,1.67,0,0,0-1.1.37l0-.26.28-.17-.49-.74.37-1.3c-.9,0-.53,1-1.25,1.24l-.09-1.33,2.23-1.26,0,.53c1.6.11,2.42-1.34,3.21-2.43,1.43-.08,1.7-1.3,2.55-2a3.93,3.93,0,0,1,3.29-1L39.53,14,39.45,15l.63,0,.44-1.2.36-.07L41,14a2.22,2.22,0,0,0-.47,1.47A4.64,4.64,0,0,0,44,16.77c.73-.12,1.7,0,2-.83l-.16-.27-2.34.27-.08-.18,2.28-.64A3,3,0,0,0,44,12.26a5.47,5.47,0,0,0-2.42.19,6.89,6.89,0,0,0-3.53.63c-.83.48-1,1.09-1.37,1.68-.29.33-.82.3-1.11.63-.47.32-.69.92-1.08,1.34l-.21-.81a12.74,12.74,0,0,1,1.51-1.05,3.54,3.54,0,0,1,.88-1.17c.47-.41,1.21-.71,1.52-1.31a4.62,4.62,0,0,0,.08-1.15,3.59,3.59,0,0,0-.95-.42,9.41,9.41,0,0,0-3.89.61c-.54.15-.84.57-1.29.71l0-.35c.54-.14.85-.65,1.48-.78a5.88,5.88,0,0,1,2.62-.44c1.09-.19,2.21.33,3.37.33a14.65,14.65,0,0,1,2.16-.21c.9-.11,2.21.33,3.22,0,.37-.15.58-.58.94-.73.07-1-.22-2,.38-2.81-.49-.65,0-1.06.21-1.75.13-.52,0-1.33.3-1.75A3.84,3.84,0,0,1,48.94,2c.19-.17.71.05,1.06.07l.12-.43,2-.13.12-.44c1-.28,2.49.09,2.58,1.43A6.13,6.13,0,0,0,54.66,3.18Z" transform="translate(-19.24 -0.97)"/></svg>