<?xml version="1.0" encoding="utf-8"?>
<!-- Generator: Adobe Illustrator 24.2.3, SVG Export Plug-In . SVG Version: 6.00 Build 0)  -->
<svg version="1.1" id="Layer_1" xmlns="http://www.w3.org/2000/svg" xmlns:xlink="http://www.w3.org/1999/xlink" x="0px" y="0px"
	 viewBox="0 0 300.14 54.18" style="enable-background:new 0 0 300.14 54.18;" xml:space="preserve">
<style type="text/css">
	.st0{fill:#010101;}
	.st1{fill-rule:evenodd;clip-rule:evenodd;fill:#080808;}
</style>
<g id="Layer_2_1_">
	<g>
		<g>
			<g>
				<g>
					<polygon class="st0" points="233.37,25.58 235.45,25.58 236.98,30.47 237,30.47 238.54,25.58 240.61,25.58 240.61,32.03 
						239.37,32.03 239.37,26.71 239.35,26.71 237.61,32.03 236.37,32.03 234.63,26.71 234.61,26.72 234.61,32.03 233.37,32.03 					
						"/>
					<rect x="242.58" y="25.58" class="st0" width="1.3" height="6.46"/>
					<polygon class="st0" points="245.86,25.58 247.45,25.58 249.91,30.4 249.93,30.4 249.93,25.58 251.17,25.58 251.17,32.03 
						249.59,32.03 247.12,27.21 247.1,27.21 247.1,32.03 245.86,32.03 					"/>
					<rect x="253.24" y="25.58" class="st0" width="1.29" height="6.46"/>
					<path class="st0" d="M259.88,26.76c-0.41-0.17-0.86-0.28-1.31-0.28c-0.44,0-1.02,0.19-1.02,0.9c0,1.12,2.83,0.65,2.83,2.81
						c0,1.41-1.12,1.95-2.42,1.95c-0.7,0-1.02-0.09-1.65-0.25l0.12-1.17c0.44,0.24,0.95,0.4,1.46,0.4c0.49,0,1.15-0.25,1.15-0.83
						c0-1.23-2.83-0.72-2.83-2.86c0-1.44,1.12-1.97,2.26-1.97c0.56,0,1.07,0.07,1.55,0.23L259.88,26.76z"/>
					<polygon class="st0" points="262.23,26.59 260.44,26.59 260.44,25.58 265.31,25.58 265.31,26.59 263.52,26.59 263.52,32.03 
						262.23,32.03 					"/>
					<polygon class="st0" points="266.13,25.58 269.94,25.58 269.94,26.59 267.43,26.59 267.43,28.19 269.73,28.19 269.73,29.2 
						267.43,29.2 267.43,31.02 269.96,31.02 269.96,32.03 266.13,32.03 					"/>
					<path class="st0" d="M271.47,25.58h1.4c1.39,0,3.04-0.05,3.04,1.75c0,0.76-0.51,1.39-1.33,1.5v0.02
						c0.35,0.03,0.55,0.38,0.68,0.67l1.03,2.53h-1.44l-0.78-2.02c-0.19-0.48-0.35-0.67-0.9-0.67h-0.42v2.68h-1.29L271.47,25.58
						L271.47,25.58z M272.76,28.33h0.43c0.64,0,1.37-0.09,1.37-0.9c0-0.78-0.72-0.84-1.37-0.84h-0.43V28.33z"/>
					<path class="st0" d="M280.82,26.76c-0.41-0.17-0.86-0.28-1.31-0.28s-1.02,0.19-1.02,0.9c0,1.12,2.83,0.65,2.83,2.81
						c0,1.41-1.12,1.95-2.42,1.95c-0.7,0-1.02-0.09-1.66-0.25l0.12-1.17c0.44,0.24,0.95,0.4,1.46,0.4c0.49,0,1.15-0.25,1.15-0.83
						c0-1.23-2.83-0.72-2.83-2.86c0-1.44,1.12-1.97,2.26-1.97c0.56,0,1.07,0.07,1.54,0.23L280.82,26.76z"/>
					<polygon class="st0" points="283.17,26.59 281.38,26.59 281.38,25.58 286.25,25.58 286.25,26.59 284.46,26.59 284.46,32.03 
						283.17,32.03 					"/>
					<polygon class="st0" points="285.64,25.58 287.02,25.58 288.68,30.65 288.7,30.65 290.34,25.58 291.62,25.58 289.45,32.03 
						287.86,32.03 					"/>
					<path class="st0" d="M295.37,25.46c2.03,0,3.16,1.37,3.16,3.32s-1.12,3.36-3.16,3.36c-2.07,0-3.16-1.38-3.16-3.36
						C292.21,26.81,293.32,25.46,295.37,25.46z M295.37,31.13c1.32,0,1.81-1.17,1.81-2.34c0-1.14-0.53-2.3-1.81-2.3
						s-1.81,1.17-1.81,2.3C293.56,29.95,294.05,31.13,295.37,31.13z"/>
					<polygon class="st0" points="233.38,34.08 234.67,34.08 234.67,36.85 237,34.08 238.6,34.08 235.94,37.12 238.71,40.53 
						237.01,40.53 234.69,37.54 234.67,37.54 234.67,40.53 233.38,40.53 					"/>
					<path class="st0" d="M239.5,34.08h1.29v3.73c0,1.1,0.35,1.82,1.34,1.82c0.99,0,1.34-0.72,1.34-1.82v-3.73h1.3v4.13
						c0,1.73-0.98,2.44-2.63,2.44c-1.66,0-2.64-0.71-2.64-2.44L239.5,34.08L239.5,34.08z"/>
					<polygon class="st0" points="246.62,34.08 247.91,34.08 247.91,39.52 250.34,39.52 250.34,40.53 246.62,40.53 					"/>
					<polygon class="st0" points="251.43,35.09 249.64,35.09 249.64,34.08 254.51,34.08 254.51,35.09 252.73,35.09 252.73,40.53 
						251.43,40.53 					"/>
					<path class="st0" d="M255.29,34.08h1.3v3.73c0,1.1,0.35,1.82,1.34,1.82s1.34-0.72,1.34-1.82v-3.73h1.29v4.13
						c0,1.73-0.98,2.44-2.64,2.44c-1.65,0-2.63-0.71-2.63-2.44L255.29,34.08L255.29,34.08z"/>
					<path class="st0" d="M262.35,34.08h1.4c1.39,0,3.04-0.05,3.04,1.75c0,0.76-0.51,1.39-1.33,1.5v0.02
						c0.35,0.03,0.55,0.38,0.68,0.67l1.04,2.53h-1.44l-0.78-2.02c-0.19-0.48-0.35-0.67-0.9-0.67h-0.41v2.68h-1.3L262.35,34.08
						L262.35,34.08z M263.64,36.84h0.42c0.64,0,1.37-0.09,1.37-0.9c0-0.78-0.72-0.84-1.37-0.84h-0.42V36.84z"/>
					<polygon class="st0" points="269.48,37.98 267.12,34.08 268.64,34.08 270.17,36.79 271.72,34.08 273.09,34.08 270.77,37.98 
						270.77,40.53 269.48,40.53 					"/>
					<path class="st0" d="M225.12,26.49c-2.79-5.13-8.14-8.32-13.98-8.32c-1.31,0-2.6,0.16-3.86,0.47
						c-6.54,1.63-11.35,7.23-11.97,13.94l0,0c-0.05,0.49-0.07,0.99-0.07,1.48c0,5.35,2.67,10.31,7.14,13.27
						c2.6,1.72,5.63,2.63,8.75,2.63c6.33,0,12.05-3.75,14.58-9.55c0.87-2.01,1.32-4.14,1.32-6.34
						C227.04,31.42,226.37,28.8,225.12,26.49z M224.74,39.98c-2.36,5.41-7.69,8.91-13.59,8.91c-2.92,0-5.74-0.85-8.16-2.45
						c-4.17-2.76-6.66-7.38-6.66-12.38c0-0.46,0.02-0.93,0.06-1.38c0.58-6.26,5.06-11.48,11.16-13c1.17-0.29,2.38-0.44,3.6-0.44
						c5.44,0,10.43,2.97,13.03,7.76c1.17,2.15,1.79,4.6,1.79,7.06C225.97,36.12,225.55,38.11,224.74,39.98z"/>
					<path class="st0" d="M218.24,38.98c-0.8,1.15-1.86,2.07-3.06,2.7l-1.68-3.21c-0.73,0.38-1.52,0.57-2.35,0.57
						c-2.8,0-5.07-2.27-5.07-5.07l0.03-0.57l-0.91-0.1c-0.03,0.23-0.04,0.47-0.04,0.71c0,2.81,2,5.22,4.76,5.73l-0.19,2.81
						c-0.28-0.05-0.55-0.11-0.82-0.18c-0.1-0.03-0.2-0.07-0.3-0.1c-0.16-0.05-0.33-0.1-0.49-0.16c-0.11-0.04-0.22-0.1-0.33-0.14
						c-0.14-0.06-0.29-0.12-0.43-0.19c-0.11-0.06-0.22-0.12-0.33-0.18c-0.13-0.07-0.27-0.14-0.39-0.22
						c-0.11-0.07-0.21-0.14-0.31-0.21c-0.12-0.08-0.25-0.16-0.37-0.25c-0.1-0.08-0.2-0.16-0.3-0.24c-0.11-0.09-0.23-0.18-0.34-0.28
						c-0.1-0.09-0.18-0.18-0.27-0.27c-0.1-0.1-0.21-0.2-0.31-0.31c-0.09-0.1-0.17-0.2-0.25-0.3c-0.08-0.09-0.16-0.18-0.23-0.28l0,0
						l-1.12,0.51c-0.8-1.12-1.3-2.3-1.55-3.58c-0.12-0.63-0.18-1.29-0.18-1.97c0-4.05,2.54-7.75,6.31-9.21l0.34,0.89
						c-3.33,1.26-5.7,4.47-5.7,8.23c0,1.14,0.19,2.17,0.61,3.22l0.18-0.06l1.32-0.42c-0.35-0.86-0.53-1.81-0.53-2.74
						c0-3.92,3.14-7.12,7.04-7.21c0.06,0,0.12-0.01,0.18-0.01c2.32,0,4.51,1.13,5.86,3.01l1.31-0.89l0,0l2.67-1.88
						c-2.26-3.2-5.94-5.1-9.84-5.1c-6.64,0-12.04,5.4-12.04,12.04c0,0.87,0.09,1.75,0.28,2.59c1.2,5.48,6.15,9.45,11.76,9.45
						c3.94,0,7.64-1.93,9.89-5.17L218.24,38.98z"/>
				</g>
			</g>
		</g>
	</g>
	<g>
		<g>
			<g>
				<path class="st0" d="M37.35,31.89v-0.14h2.03c0.64,0,1.13,0.12,1.46,0.37c0.34,0.24,0.51,0.57,0.51,0.97
					c0,0.41-0.16,0.76-0.48,1.03s-0.84,0.41-1.57,0.41c-0.18,0-0.35-0.01-0.51-0.02v1.34c0,0.31,0.05,0.5,0.15,0.57
					c0.1,0.08,0.28,0.12,0.53,0.12v0.14h-2.13v-0.14c0.29-0.03,0.47-0.09,0.56-0.17c0.08-0.08,0.13-0.28,0.13-0.58v-3.2
					c0-0.3-0.05-0.48-0.15-0.56C37.79,31.95,37.61,31.9,37.35,31.89z M38.79,34.21c0.14,0.01,0.3,0.02,0.49,0.02
					c0.84,0,1.26-0.38,1.26-1.13c0-0.71-0.46-1.07-1.39-1.07c-0.16,0-0.26,0.02-0.3,0.05s-0.06,0.11-0.06,0.24V34.21z"/>
				<path class="st0" d="M44.85,31.67H45l1.86,4.25c0.12,0.27,0.22,0.44,0.3,0.51c0.08,0.07,0.2,0.11,0.34,0.11v0.14h-1.9v-0.14
					c0.21,0,0.35-0.02,0.42-0.06s0.1-0.12,0.1-0.22c0-0.09-0.05-0.25-0.14-0.48l-0.31-0.72h-1.94l-0.37,0.89
					c-0.01,0.04-0.03,0.09-0.04,0.14c-0.01,0.05-0.01,0.09-0.01,0.12c0,0.22,0.17,0.32,0.5,0.32v0.14h-1.47v-0.14
					c0.2-0.01,0.36-0.1,0.48-0.29c0.12-0.19,0.27-0.5,0.46-0.94L44.85,31.67z M43.86,34.76h1.73l-0.86-2.04L43.86,34.76z"/>
				<path class="st0" d="M48.56,36.54c0.23-0.01,0.4-0.06,0.51-0.16c0.12-0.1,0.17-0.36,0.17-0.77v-3.03c0-0.31-0.05-0.5-0.16-0.57
					c-0.1-0.08-0.28-0.12-0.53-0.13v-0.14h1.46l1.73,3.76l1.66-3.76h1.52v0.14c-0.25,0.01-0.43,0.06-0.53,0.16
					c-0.1,0.09-0.15,0.27-0.15,0.54v3.32c0,0.26,0.05,0.43,0.16,0.51c0.11,0.08,0.29,0.12,0.52,0.13v0.14h-2.13v-0.14
					c0.28-0.01,0.46-0.07,0.55-0.16s0.13-0.27,0.13-0.54V32.4l-1.91,4.28h-0.11l-1.88-4.11v3.04c0,0.38,0.05,0.63,0.15,0.75
					c0.1,0.12,0.28,0.18,0.53,0.18v0.14h-1.7L48.56,36.54L48.56,36.54z"/>
				<path class="st0" d="M58.48,31.67h0.15l1.86,4.25c0.12,0.27,0.22,0.44,0.3,0.51c0.08,0.07,0.2,0.11,0.34,0.11v0.14h-1.9v-0.14
					c0.21,0,0.35-0.02,0.42-0.06s0.1-0.12,0.1-0.22c0-0.09-0.05-0.25-0.14-0.48l-0.31-0.72h-1.94L57,35.96
					c-0.01,0.04-0.03,0.09-0.04,0.14c-0.01,0.05-0.01,0.09-0.01,0.12c0,0.22,0.17,0.32,0.5,0.32v0.14h-1.47v-0.14
					c0.2-0.01,0.36-0.1,0.48-0.29c0.12-0.19,0.27-0.5,0.46-0.94L58.48,31.67z M57.49,34.76h1.73l-0.86-2.04L57.49,34.76z
					 M58.25,31.3h-0.3l1.11-1.09c0.06-0.06,0.11-0.1,0.15-0.13c0.05-0.03,0.1-0.05,0.16-0.05c0.08,0,0.15,0.02,0.19,0.07
					c0.05,0.04,0.07,0.1,0.07,0.17c0,0.06-0.02,0.12-0.07,0.17c-0.04,0.06-0.11,0.11-0.19,0.16L58.25,31.3z"/>
				<path class="st0" d="M62.21,33.02l0.05-1.28h4.15l0.05,1.28h-0.17c-0.08-0.41-0.2-0.68-0.35-0.8s-0.38-0.19-0.68-0.19h-0.54
					v3.81c0,0.26,0.04,0.44,0.12,0.52c0.08,0.09,0.2,0.14,0.35,0.15l0.22,0.02v0.14h-2.13v-0.14l0.19-0.02
					c0.2-0.02,0.33-0.08,0.4-0.17c0.07-0.09,0.1-0.28,0.1-0.56v-3.75h-0.52c-0.39,0-0.65,0.09-0.79,0.28
					c-0.14,0.18-0.23,0.42-0.27,0.71L62.21,33.02L62.21,33.02z"/>
				<path class="st0" d="M71.67,35.35v-2.54c0-0.4-0.06-0.66-0.18-0.77s-0.29-0.16-0.51-0.16v-0.14h1.7v0.14
					c-0.3,0.02-0.48,0.11-0.57,0.25C72.04,32.28,72,32.5,72,32.82v3.94h-0.13l-3.3-4.08v2.93c0,0.36,0.05,0.61,0.15,0.73
					c0.1,0.13,0.28,0.19,0.53,0.2v0.14h-1.7v-0.14c0.33-0.03,0.53-0.12,0.59-0.26c0.07-0.15,0.1-0.37,0.1-0.67v-3.32
					c-0.13-0.17-0.24-0.28-0.33-0.33c-0.09-0.05-0.19-0.08-0.3-0.08h-0.06v-0.14h1.23L71.67,35.35z"/>
				<path class="st0" d="M73.8,36.54c0.28,0,0.46-0.05,0.55-0.14c0.09-0.09,0.13-0.27,0.13-0.56v-3.32c0-0.22-0.04-0.38-0.13-0.47
					c-0.08-0.1-0.27-0.16-0.56-0.17v-0.14h2.13v0.14c-0.31,0.01-0.5,0.08-0.57,0.19c-0.08,0.12-0.11,0.28-0.11,0.51v3.26
					c0,0.29,0.05,0.48,0.16,0.57s0.28,0.13,0.52,0.13v0.14H73.8V36.54z M74.58,31.3h-0.3l1.11-1.09c0.06-0.06,0.11-0.1,0.15-0.13
					c0.05-0.03,0.1-0.05,0.16-0.05c0.08,0,0.15,0.02,0.19,0.07c0.05,0.04,0.07,0.1,0.07,0.17c0,0.06-0.02,0.12-0.07,0.17
					s-0.11,0.11-0.19,0.16L74.58,31.3z"/>
				<path class="st0" d="M77.17,36.54c0.24-0.01,0.41-0.05,0.52-0.12c0.11-0.07,0.17-0.27,0.17-0.58v-3.32
					c0-0.26-0.05-0.43-0.16-0.5c-0.1-0.08-0.28-0.12-0.53-0.13v-0.14h2.13v0.14c-0.29,0.01-0.47,0.07-0.56,0.16
					c-0.08,0.09-0.13,0.27-0.13,0.54v1.5l1.38-1.27c0.17-0.16,0.29-0.29,0.37-0.4s0.12-0.2,0.12-0.28c0-0.08-0.03-0.14-0.09-0.17
					c-0.06-0.04-0.19-0.06-0.41-0.06v-0.14h1.95v0.14c-0.24,0-0.44,0.05-0.6,0.15c-0.15,0.09-0.32,0.23-0.5,0.42l-1.44,1.43
					l1.73,1.85c0.32,0.34,0.55,0.56,0.7,0.66c0.15,0.1,0.3,0.15,0.47,0.15v0.14h-2.27v-0.14c0.17,0,0.3-0.01,0.39-0.03
					s0.14-0.07,0.14-0.16c0-0.19-0.34-0.62-1.01-1.29l-0.73-0.75l-0.18,0.17v1.36c0,0.31,0.07,0.5,0.2,0.58s0.3,0.12,0.49,0.12v0.14
					h-2.13L77.17,36.54L77.17,36.54z"/>
				<path class="st0" d="M41.52,43.36v-2.54c0-0.4-0.06-0.66-0.18-0.77s-0.29-0.16-0.51-0.16v-0.14h1.7v0.14
					c-0.3,0.02-0.48,0.11-0.57,0.25c-0.08,0.14-0.12,0.37-0.12,0.68v3.94h-0.13l-3.3-4.08v2.93c0,0.36,0.05,0.61,0.15,0.73
					c0.1,0.13,0.28,0.19,0.53,0.2v0.14h-1.7v-0.14c0.33-0.03,0.53-0.12,0.59-0.26c0.07-0.15,0.1-0.37,0.1-0.67v-3.32
					c-0.13-0.17-0.24-0.28-0.33-0.33c-0.09-0.05-0.19-0.08-0.3-0.08h-0.06v-0.14h1.23L41.52,43.36z"/>
				<path class="st0" d="M45.25,39.68h0.15l1.86,4.25c0.12,0.27,0.22,0.44,0.3,0.51c0.08,0.07,0.2,0.11,0.34,0.11v0.14H46v-0.14
					c0.21,0,0.35-0.02,0.42-0.06s0.1-0.12,0.1-0.22c0-0.09-0.05-0.25-0.14-0.48l-0.31-0.72h-1.94l-0.37,0.89
					c-0.01,0.04-0.03,0.09-0.04,0.14c-0.01,0.05-0.01,0.09-0.01,0.12c0,0.22,0.17,0.32,0.5,0.32v0.14h-1.47v-0.14
					c0.2-0.01,0.36-0.1,0.48-0.29c0.12-0.19,0.27-0.5,0.46-0.94L45.25,39.68z M44.27,42.78H46l-0.86-2.04L44.27,42.78z M45.03,39.31
					h-0.3l1.11-1.09c0.06-0.06,0.11-0.1,0.15-0.13c0.05-0.03,0.1-0.05,0.16-0.05c0.08,0,0.15,0.02,0.19,0.07
					c0.05,0.04,0.07,0.1,0.07,0.17c0,0.06-0.02,0.12-0.07,0.17s-0.11,0.11-0.19,0.16L45.03,39.31z"/>
				<path class="st0" d="M48.09,44.56c0.28-0.02,0.46-0.08,0.55-0.18s0.13-0.3,0.13-0.57v-3.2c0-0.23-0.04-0.4-0.11-0.49
					c-0.07-0.1-0.2-0.16-0.4-0.18l-0.18-0.02v-0.14h2.12c0.6,0,1.06,0.11,1.38,0.34c0.33,0.23,0.49,0.55,0.49,0.96
					c0,0.35-0.12,0.63-0.35,0.84c-0.23,0.2-0.57,0.34-1,0.42l1.48,1.82c0.1,0.13,0.2,0.22,0.29,0.29s0.23,0.11,0.41,0.13v0.14h-1.2
					l-1.78-2.3l-0.41,0.01v1.45c0,0.23,0.04,0.4,0.13,0.5c0.09,0.11,0.27,0.17,0.56,0.19v0.14h-2.13L48.09,44.56L48.09,44.56z
					 M49.53,42.12h0.09c1.1,0,1.66-0.35,1.66-1.06c0-0.67-0.42-1.01-1.25-1.01h-0.1c-0.16,0-0.27,0.02-0.32,0.07
					c-0.05,0.04-0.08,0.12-0.08,0.23V42.12L49.53,42.12z"/>
				<path class="st0" d="M53.22,42.25c0-0.74,0.22-1.36,0.66-1.85c0.44-0.49,1.03-0.74,1.77-0.74c0.68,0,1.25,0.23,1.72,0.69
					s0.7,1.09,0.7,1.88c0,0.74-0.22,1.36-0.67,1.85c-0.45,0.48-1.03,0.73-1.76,0.73c-0.7,0-1.28-0.23-1.74-0.7
					C53.45,43.63,53.22,43.01,53.22,42.25z M54.06,42.23c0,0.69,0.14,1.24,0.42,1.66c0.28,0.41,0.67,0.62,1.18,0.62
					c0.46,0,0.83-0.19,1.13-0.58c0.3-0.39,0.44-0.94,0.44-1.67c0-0.72-0.14-1.28-0.43-1.7c-0.29-0.41-0.67-0.62-1.16-0.62
					c-0.46,0-0.84,0.2-1.13,0.58C54.21,40.92,54.06,41.49,54.06,42.23z"/>
				<path class="st0" d="M58.42,39.76h2.03c0.92,0,1.64,0.21,2.17,0.62s0.8,1.04,0.8,1.87c0,0.7-0.24,1.29-0.73,1.75
					c-0.49,0.46-1.19,0.7-2.1,0.7h-2.17v-0.14c0.27-0.02,0.46-0.08,0.55-0.17c0.09-0.09,0.14-0.27,0.14-0.53V40.6
					c0-0.32-0.06-0.51-0.18-0.57c-0.12-0.07-0.29-0.11-0.51-0.12V39.76L58.42,39.76z M59.86,44.06c0,0.14,0.03,0.23,0.08,0.28
					s0.16,0.07,0.3,0.07h0.05c1.51,0,2.27-0.72,2.27-2.16c0-0.67-0.2-1.21-0.59-1.6c-0.39-0.4-0.97-0.6-1.75-0.6
					c-0.16,0-0.26,0.03-0.3,0.08c-0.04,0.05-0.06,0.12-0.06,0.21V44.06L59.86,44.06z"/>
				<path class="st0" d="M67.93,43.36v-2.54c0-0.4-0.06-0.66-0.18-0.77s-0.29-0.16-0.51-0.16v-0.14h1.7v0.14
					c-0.3,0.02-0.48,0.11-0.57,0.25c-0.08,0.14-0.12,0.37-0.12,0.68v3.94h-0.13l-3.3-4.08v2.93c0,0.36,0.05,0.61,0.15,0.73
					c0.1,0.13,0.28,0.19,0.53,0.2v0.14h-1.7v-0.14c0.33-0.03,0.53-0.12,0.59-0.26c0.07-0.15,0.1-0.37,0.1-0.67v-3.32
					c-0.13-0.17-0.24-0.28-0.33-0.33c-0.09-0.05-0.19-0.08-0.3-0.08H63.8v-0.14h1.23L67.93,43.36z"/>
				<path class="st0" d="M69.23,44.56c0.28,0,0.46-0.05,0.55-0.14c0.09-0.09,0.13-0.27,0.13-0.56v-3.32c0-0.22-0.04-0.38-0.13-0.47
					c-0.08-0.1-0.27-0.16-0.56-0.17v-0.14h2.13v0.14c-0.31,0.01-0.5,0.08-0.57,0.19c-0.08,0.12-0.11,0.28-0.11,0.51v3.26
					c0,0.29,0.05,0.48,0.16,0.57s0.28,0.13,0.52,0.13v0.14h-2.13L69.23,44.56L69.23,44.56z M70.02,39.31h-0.3l1.11-1.09
					c0.06-0.06,0.11-0.1,0.15-0.13c0.05-0.03,0.1-0.05,0.16-0.05c0.08,0,0.15,0.02,0.19,0.07c0.05,0.04,0.07,0.1,0.07,0.17
					c0,0.06-0.02,0.12-0.07,0.17s-0.11,0.11-0.19,0.16L70.02,39.31z"/>
				<path class="st0" d="M71.64,39.76h2.13v0.14c-0.31,0.02-0.5,0.08-0.57,0.19c-0.08,0.1-0.11,0.29-0.11,0.57v1.38h2.26v-1.49
					c0-0.28-0.06-0.45-0.17-0.52s-0.28-0.11-0.52-0.12v-0.14h2.13v0.14c-0.28,0.01-0.47,0.07-0.56,0.17s-0.13,0.28-0.13,0.53v3.32
					c0,0.26,0.05,0.42,0.15,0.5s0.28,0.12,0.54,0.13v0.14h-2.13v-0.14c0.24-0.01,0.42-0.05,0.53-0.12s0.16-0.27,0.16-0.58v-1.5
					h-2.26v1.5c0,0.27,0.05,0.46,0.15,0.55s0.28,0.14,0.53,0.15v0.14h-2.13v-0.14c0.27-0.01,0.46-0.06,0.55-0.16
					c0.09-0.1,0.14-0.3,0.14-0.6v-3.26c0-0.26-0.06-0.42-0.17-0.5s-0.28-0.13-0.52-0.13L71.64,39.76L71.64,39.76z"/>
				<path class="st0" d="M77.15,42.25c0-0.74,0.22-1.36,0.66-1.85c0.44-0.49,1.03-0.74,1.77-0.74c0.68,0,1.25,0.23,1.72,0.69
					s0.7,1.09,0.7,1.88c0,0.74-0.22,1.36-0.67,1.85c-0.45,0.48-1.03,0.73-1.76,0.73c-0.7,0-1.28-0.23-1.74-0.7
					S77.15,43.01,77.15,42.25z M77.99,42.23c0,0.69,0.14,1.24,0.42,1.66c0.28,0.41,0.67,0.62,1.18,0.62c0.46,0,0.83-0.19,1.13-0.58
					s0.44-0.94,0.44-1.67c0-0.72-0.14-1.28-0.43-1.7c-0.29-0.41-0.67-0.62-1.16-0.62c-0.46,0-0.84,0.2-1.13,0.58
					C78.14,40.92,77.99,41.49,77.99,42.23z"/>
				<path class="st0" d="M37.35,47.91v-0.14h2.03c0.64,0,1.13,0.12,1.46,0.37c0.34,0.24,0.51,0.57,0.51,0.97
					c0,0.41-0.16,0.76-0.48,1.03s-0.84,0.41-1.57,0.41c-0.18,0-0.35-0.01-0.51-0.02v1.34c0,0.31,0.05,0.5,0.15,0.57
					c0.1,0.08,0.28,0.12,0.53,0.12v0.14h-2.13v-0.14c0.29-0.03,0.47-0.09,0.56-0.17s0.13-0.28,0.13-0.58v-3.2
					c0-0.3-0.05-0.48-0.15-0.56C37.79,47.97,37.61,47.92,37.35,47.91z M38.79,50.24c0.14,0.01,0.3,0.02,0.49,0.02
					c0.84,0,1.26-0.38,1.26-1.13c0-0.71-0.46-1.07-1.39-1.07c-0.16,0-0.26,0.02-0.3,0.05s-0.06,0.11-0.06,0.24V50.24z"/>
				<path class="st0" d="M41.38,52.57c0.28,0,0.46-0.05,0.55-0.14s0.13-0.27,0.13-0.56v-3.32c0-0.22-0.04-0.38-0.13-0.47
					c-0.08-0.1-0.27-0.16-0.56-0.17v-0.14h2.13v0.14c-0.31,0.01-0.5,0.08-0.57,0.19c-0.07,0.12-0.11,0.28-0.11,0.51v3.26
					c0,0.29,0.05,0.48,0.16,0.57s0.28,0.13,0.52,0.13v0.14h-2.13v-0.14H41.38z M42.16,47.32h-0.3l1.11-1.09
					c0.06-0.06,0.11-0.1,0.15-0.13c0.05-0.03,0.1-0.05,0.16-0.05c0.08,0,0.15,0.02,0.19,0.07c0.05,0.04,0.07,0.1,0.07,0.17
					c0,0.06-0.02,0.12-0.07,0.17c-0.04,0.06-0.11,0.11-0.19,0.16L42.16,47.32z"/>
				<path class="st0" d="M43.78,51.24h0.17c0.33,0.85,0.85,1.28,1.55,1.28c0.26,0,0.47-0.08,0.64-0.23
					c0.17-0.16,0.26-0.36,0.26-0.62c0-0.24-0.09-0.44-0.26-0.61s-0.47-0.37-0.9-0.61c-0.5-0.29-0.84-0.55-1-0.77S44,49.22,44,48.96
					c0-0.37,0.12-0.68,0.36-0.92c0.24-0.24,0.58-0.36,1.01-0.36c0.18,0,0.37,0.04,0.59,0.13c0.22,0.08,0.36,0.13,0.43,0.13
					s0.13-0.02,0.17-0.07c0.05-0.05,0.07-0.11,0.08-0.19h0.15l0.17,1.57h-0.17c-0.06-0.32-0.21-0.61-0.46-0.88s-0.56-0.4-0.93-0.4
					c-0.22,0-0.4,0.06-0.54,0.19c-0.15,0.12-0.22,0.3-0.22,0.52c0,0.21,0.1,0.42,0.31,0.61c0.21,0.19,0.5,0.39,0.88,0.61
					c0.54,0.32,0.9,0.59,1.07,0.82s0.25,0.49,0.25,0.76c0,0.36-0.14,0.68-0.43,0.95s-0.66,0.4-1.14,0.4c-0.25,0-0.49-0.04-0.72-0.13
					c-0.23-0.08-0.38-0.13-0.45-0.13c-0.15,0-0.22,0.08-0.23,0.25h-0.17L43.78,51.24z"/>
				<path class="st0" d="M47.45,52.57c0.24-0.01,0.41-0.06,0.52-0.15s0.16-0.29,0.16-0.61v-3.26c0-0.25-0.06-0.42-0.17-0.5
					c-0.11-0.08-0.28-0.13-0.52-0.14v-0.14h4l0.03,1.05H51.3c-0.07-0.32-0.18-0.53-0.34-0.62c-0.15-0.09-0.41-0.13-0.78-0.13h-1.05
					c-0.1,0-0.16,0.02-0.19,0.06s-0.05,0.12-0.05,0.24v1.61h1.14c0.31,0,0.52-0.05,0.62-0.15c0.11-0.1,0.18-0.28,0.22-0.55h0.17
					v1.69h-0.17c-0.04-0.28-0.11-0.46-0.23-0.55s-0.34-0.14-0.68-0.15H48.9v1.69c0,0.08,0,0.16,0.01,0.23
					c0,0.07,0.02,0.12,0.04,0.15c0.03,0.04,0.12,0.06,0.28,0.07s0.31,0.01,0.46,0.01H50c0.53,0,0.91-0.08,1.14-0.25
					s0.42-0.41,0.55-0.74h0.17l-0.33,1.28h-4.08L47.45,52.57L47.45,52.57z"/>
				<path class="st0" d="M51.86,52.57c0.23-0.01,0.4-0.06,0.51-0.16c0.12-0.1,0.17-0.36,0.17-0.77v-3.03c0-0.31-0.05-0.5-0.16-0.57
					c-0.1-0.08-0.28-0.12-0.53-0.13v-0.14h1.46l1.73,3.76l1.66-3.76h1.52v0.14c-0.25,0.01-0.43,0.06-0.53,0.16
					c-0.1,0.09-0.15,0.27-0.15,0.54v3.32c0,0.26,0.05,0.43,0.16,0.51c0.11,0.08,0.29,0.12,0.52,0.13v0.14h-2.13v-0.14
					c0.28-0.01,0.46-0.07,0.55-0.16s0.13-0.27,0.13-0.54v-3.44l-1.91,4.28h-0.11l-1.88-4.11v3.04c0,0.38,0.05,0.63,0.15,0.75
					c0.1,0.12,0.28,0.18,0.53,0.18v0.14h-1.7L51.86,52.57L51.86,52.57z"/>
				<path class="st0" d="M62.38,51.38v-2.54c0-0.4-0.06-0.66-0.18-0.77s-0.29-0.16-0.51-0.16v-0.14h1.7v0.14
					c-0.3,0.02-0.48,0.11-0.57,0.25c-0.08,0.14-0.12,0.37-0.12,0.68v3.94h-0.13l-3.3-4.08v2.93c0,0.36,0.05,0.61,0.15,0.73
					c0.1,0.13,0.28,0.19,0.53,0.2v0.14h-1.7v-0.14c0.33-0.03,0.53-0.12,0.59-0.26c0.07-0.15,0.1-0.37,0.1-0.67v-3.32
					c-0.13-0.17-0.24-0.28-0.33-0.33c-0.09-0.05-0.19-0.08-0.3-0.08h-0.06v-0.14h1.23L62.38,51.38z"/>
				<path class="st0" d="M63.48,52.57c0.28,0,0.46-0.05,0.55-0.14c0.09-0.09,0.13-0.27,0.13-0.56v-3.32c0-0.22-0.04-0.38-0.13-0.47
					c-0.08-0.1-0.27-0.16-0.56-0.17v-0.14h2.13v0.14c-0.31,0.01-0.5,0.08-0.57,0.19c-0.08,0.12-0.11,0.28-0.11,0.51v3.26
					c0,0.29,0.05,0.48,0.16,0.57s0.28,0.13,0.52,0.13v0.14h-2.13v-0.14H63.48z"/>
				<path class="st0" d="M70.16,51.71l0.13,0.13c-0.21,0.29-0.5,0.52-0.86,0.7s-0.74,0.27-1.15,0.27c-0.76,0-1.37-0.23-1.82-0.7
					c-0.45-0.46-0.68-1.09-0.68-1.87c0-0.72,0.23-1.33,0.69-1.83s1.07-0.74,1.83-0.74c0.29,0,0.57,0.04,0.84,0.12
					c0.28,0.08,0.43,0.12,0.48,0.12c0.18,0,0.29-0.08,0.33-0.23h0.15l0.07,1.69H70c-0.09-0.43-0.29-0.77-0.58-1.02
					s-0.64-0.38-1.04-0.38c-0.53,0-0.95,0.2-1.27,0.61s-0.48,0.97-0.48,1.7c0,0.72,0.17,1.27,0.52,1.65s0.79,0.56,1.33,0.56
					C69.11,52.48,69.67,52.22,70.16,51.71z"/>
				<path class="st0" d="M70.47,49.05l0.05-1.28h4.15l0.05,1.28h-0.17c-0.08-0.41-0.2-0.68-0.35-0.8s-0.38-0.19-0.68-0.19h-0.54
					v3.81c0,0.26,0.04,0.44,0.12,0.52c0.08,0.09,0.2,0.14,0.35,0.15l0.22,0.02v0.14h-2.13v-0.14l0.19-0.02
					c0.2-0.02,0.33-0.08,0.4-0.17c0.07-0.09,0.1-0.28,0.1-0.56v-3.75h-0.52c-0.39,0-0.65,0.09-0.79,0.28
					c-0.14,0.18-0.23,0.42-0.27,0.71L70.47,49.05L70.47,49.05z"/>
				<path class="st0" d="M74.78,47.91v-0.14h1.98v0.14l-0.16,0.01c-0.15,0-0.25,0.03-0.31,0.08c-0.06,0.05-0.08,0.11-0.08,0.18
					c0,0.03,0.01,0.07,0.02,0.13c0.01,0.06,0.04,0.12,0.07,0.2l1.32,3l1.09-2.74c0.09-0.23,0.13-0.4,0.13-0.52
					c0-0.1-0.03-0.17-0.1-0.23s-0.21-0.1-0.45-0.11v-0.14h1.53v0.14c-0.17,0.01-0.3,0.05-0.38,0.13c-0.08,0.07-0.17,0.24-0.28,0.49
					l-1.67,4.25H77.4l-1.83-4.09c-0.16-0.34-0.28-0.56-0.39-0.64C75.08,47.97,74.95,47.92,74.78,47.91z"/>
				<path class="st0" d="M79.99,52.57c0.28,0,0.46-0.05,0.55-0.14c0.09-0.09,0.13-0.27,0.13-0.56v-3.32c0-0.22-0.04-0.38-0.13-0.47
					c-0.08-0.1-0.27-0.16-0.56-0.17v-0.14h2.13v0.14c-0.31,0.01-0.5,0.08-0.57,0.19c-0.08,0.12-0.11,0.28-0.11,0.51v3.26
					c0,0.29,0.05,0.48,0.16,0.57s0.28,0.13,0.52,0.13v0.14h-2.13L79.99,52.57L79.99,52.57z M80.78,47.32h-0.3l1.11-1.09
					c0.06-0.06,0.11-0.1,0.15-0.13c0.05-0.03,0.1-0.05,0.16-0.05c0.08,0,0.15,0.02,0.19,0.07c0.05,0.04,0.07,0.1,0.07,0.17
					c0,0.06-0.02,0.12-0.07,0.17s-0.11,0.11-0.19,0.16L80.78,47.32z"/>
			</g>
			<path class="st1" d="M72.68,24.25l0.36,0.03l0.08,0.1l-0.51,0.94l-0.27-0.02C72.29,24.84,72.39,24.59,72.68,24.25 M71.62,24.18
				l0.45,0.03l0.16,0.28c-0.12,0.44-0.23,0.78-0.78,0.92l-0.11-0.98L71.62,24.18z M59.26,23.4c-0.06,0.79-0.01,1.42-0.84,1.71
				l0.43-1.03c-0.85-0.59-0.93,0.47-0.97,1.08l0.26,0.19l-0.73,0.22l0.29-0.42l-0.42-0.38c-0.22-0.72,0.87-1,1.42-1.14l-0.06-0.36
				l-0.32-0.46l-0.91,0.2C58.04,21.64,58.67,22.92,59.26,23.4 M72.62,22.66l0.46,1.09c-0.74,0.39-1.15-0.26-1.1-0.96L72.62,22.66z
				 M73.43,22.53l0.26,0.11l-0.11,0.35l-0.26-0.11L73.43,22.53z M56.24,20.62l-0.01,0.09c-0.42,0.85-0.11,1.59,0.46,2.33l0.52,0.21
				l-0.63,0.05C56.18,22.75,55.14,20.99,56.24,20.62 M72.76,20.54l0.17,0.1l-0.01,0.09l-0.26,1.22l-0.36,0.07
				C72.25,21.57,72.48,20.79,72.76,20.54 M67.03,19.52l0.17,0.1l-0.03,0.44l-0.27,0.07l-0.25-0.2l0.02-0.26L67.03,19.52z
				 M73.39,19.26c-0.03,0.44-0.18,1.23-0.71,1.1C72.81,19.92,72.86,19.13,73.39,19.26 M74.29,19.14l0.08,0.1l-0.23,0.69L74.29,19.14
				z M66.59,18.16l0.09,0.01l0.12,0.89l-0.54,0.05l-0.03-0.8L66.59,18.16z M54.26,17.03l0.92,0.86c-0.08,1.15-1.11,1.87-2.04,2.34
				l-0.25,1.04l0.67,0.58c0.19-0.17,0.29-0.34,0.48-0.41c0.19-0.16,0.45-0.05,0.64-0.22c0.29-0.24,0.43-1.12,0.87-0.91
				c-0.11,0.35-0.59,0.76-0.53,1.2c-0.04,0.62,0.63,1.28,0.67,1.91c-0.6-0.31-0.73-1.02-1.05-1.58l-0.91,0.29
				c-0.05,0.7,0.3,0.9,0.52,1.54c0.23,0.63-0.14,0.7,0.44,1.36l0.26,0.02l0.21-0.43l0.78,0.41l0.04-0.53l0.58,0.57l0.61,0.22
				c-0.46,0.15-0.81,0.03-1.26,0.09c-0.81,0.03-1.53,0.16-1.92-0.66c-0.32-0.55-0.18-1.25-0.42-1.71c-0.62-1.37-1.57-1.7-0.59-3.05
				c0.56-0.32,1.84-0.76,1.73-1.74C54.66,17.68,54.32,17.48,54.26,17.03 M72.94,17.99c0.4,0.65-0.3,1.75-0.53,2.44
				c-0.23,0.69-0.28,1.48-0.68,2.08l-1.16,0.01c-0.07-0.27,0.05-0.71-0.03-0.89c-0.15-0.45-0.48-0.74-0.46-1.09
				c-0.14-0.54-0.01-1.15,0.03-1.68L72.94,17.99z M73.98,17.26l-0.27,1.22l-0.27,0.07C73.11,18.09,73.28,17.04,73.98,17.26
				 M46.33,15.42l-0.01,0.09l-0.84,0.56C45.69,15.73,45.98,15.39,46.33,15.42 M64.19,16.76l0.25,0.28l-0.02,0.26
				c-0.66,0.48-0.68,0.83-1.59,1.04l-0.26-0.19l0.04-0.53l-0.17-0.1c-0.29,0.25-0.75,0.57-1.12,0.63c-0.72,0.13-1.74-0.57-2.44-0.79
				c-0.43-0.21-0.79-0.15-1.13-0.43l0.21-0.43l-1.6-0.11l-0.05-0.53l-0.17-0.1l-1.71,0.15l0.02-0.26c0.75-0.48,1.94-0.93,2.9-0.59
				c0.87,0.33,1.69,1.36,2.65,1.6C61.93,17.13,62.5,16.64,64.19,16.76 M79.4,16.4l0.09,0.01c0.15,0.45,0.05,0.62-0.25,1.04
				l-0.27-0.02l0.06-0.88L79.4,16.4z M51.4,14.45c-0.14,0.79-0.55,1.46-0.6,2.26c-0.02,0.26,0.05,0.62,0.03,0.89
				c-0.46,0.14-0.66,0.4-1.02,0.55c0.2-0.34,0.57-0.49,0.77-0.83c0.1-0.17-0.06-0.45-0.05-0.62c0.03-0.44,0.23-0.78,0.26-1.22
				c-0.35-0.11-0.62-0.04-0.99,0.11l0.02-0.26C50.37,15.08,50.86,14.5,51.4,14.45 M74.87,15.91l0.25,0.19l-0.01,0.09l-0.57,1.73
				l0.28-0.16l0.36-1.3l0.27-0.07l0.17,0.19l0.72-0.04c0.23,0.46,0.3,0.73,0.83,0.85l0.29-0.34c0.05-0.7,0.59-0.84,1.22-0.8
				c0.27,1.17-0.83,1.62-1.8,1.47L77.04,18c0.78,0.32,1.45-0.34,2.25-0.28c0.26,0.02,0.6,0.4,0.86,0.5l-1.78,6.34l-1.81,0.4
				c-0.14-0.63,0.09-1.23,0.3-1.75c0.29-1.57,1.11-3.11,1.22-4.61l-0.27,0.07l-1.95,6.24l-2.15,0.12c-0.4-0.74,0.33-2.19,0.56-2.88
				c0.3-1.75,1.03-3.29,1.34-5.04l-0.19,0.17c-0.34,0.95-0.57,1.82-0.91,2.86c-0.09,0.08-0.04,0.61-0.23,0.78
				c-0.18,0.07-0.18-0.01-0.35-0.02l0.04-0.62l-0.59,2.08l-0.27,0.07c-0.32-0.55,0.09-1.32,0.3-1.84c0.17-1.14,0.5-2.09,0.92-2.95
				C74.44,16.94,74.31,16.31,74.87,15.91 M73.86,15.04l0.08,0.09l-0.14,0.7l0.45,0.03l-0.06,0.88l-0.28,0.16l-0.23-0.55
				c-0.47,0.41-1.05,0.99-1.66,0.77c-0.13-0.72,0.32-0.77,0.62-1.28c0.11-0.26,0.13-0.52,0.32-0.77L73.86,15.04z M79.56,15.26
				l0.08,0.18l-0.28,0.16l-0.07-0.27L79.56,15.26z M41.54,12.43l-0.01,0.09c-0.32,0.77-0.87,1-1.37,1.76
				c-0.48,0.41-0.44,1.21-0.75,1.72c-0.38-0.91,0.58-1.91,1.25-2.57C40.96,13.09,41.08,12.57,41.54,12.43 M42.46,12.05l0.08,0.09
				l0.31,0.73c-0.05,0.7-0.02,1.5-0.33,2.19c-0.31,0.69-0.98,1.17-1.02,1.88c1,1.04,2.79-0.25,3.72-0.8L45.2,16.4
				c-1.02,0.55-2.33,1.43-3.57,1.25c-1.93-0.49-0.43-2.77,0.59-3.32l0.02-0.35l-0.34-0.29C41.93,13.25,42.09,12.2,42.46,12.05
				 M41.75,12l-0.01,0.17l-0.17-0.1L41.75,12z M79.02,15.31c-0.22,0.52-0.83,0.38-1.29,0.62c-0.37,0.15-0.49,0.59-0.68,0.84
				l-0.35-0.2l-0.2-0.9l-0.35-0.11l-0.38,0.42l-1.72-0.92c0.31-0.6,1.79-1.29,2.49-1.07c0.44,0.03,0.59,0.49,1.11,0.7
				C78.07,14.89,78.62,14.75,79.02,15.31 M65.72,12.79c0.79,0.15,1.69,1.36,1.36,2.22c-0.11,0.26-0.29,0.33-0.31,0.6l0.45-0.06
				c0.39-0.5-0.07-1.51,0.49-1.91c0.66-0.48,1.96,1.29,2.1,1.92c0.06,0.36-0.05,0.79-0.26,1.13l-1.22-0.44
				c0.14,0.54,0.76,0.58,1.08,1.14c0.65,0.93,0.22,1.96,0.14,3.11c-0.03,0.35,0.41,0.56,0.56,0.93c0.16,0.28-0.04,0.61-0.16,0.96
				l0.23,0.55l-0.63,0.05l0.07,0.36l0.45,0.03c0.38-0.33,0.76-0.65,1.29-0.62l0.46,1c-0.56,0.4-0.93,0.56-1.16,1.25l-1.14-0.35
				l-0.12,0.43c-1.63,0.42-0.99-1.13-1.66-1.8l-0.38,0.32L67.1,23.6c-0.4-0.65-0.02-1.06,0.21-1.66c0.04-0.53-0.12-0.89-0.09-1.33
				l0.27-0.07c0.31,0.64,0.48,2.07,1.1,2.2c-0.06-0.36-0.11-0.98-0.18-1.25c-0.21-0.72-1.07-1.31-0.75-2l0.45,0.03
				c-0.15-0.45-0.66-0.75-0.71-1.29c-0.14-0.54-0.03-0.89,0.1-1.41c-0.64,0.22-1.13,0.81-1.52,1.31L65.45,18
				c-0.39-0.82,0.34-1.12,0.57-1.82C64.59,16.07,64.6,13.42,65.72,12.79 M50.07,11.79c-1.23,1.06-2.31,2.4-3.54,3.47
				c-0.04-0.71,1.18-1.51,1.75-2C48.75,12.84,49.37,11.56,50.07,11.79 M51.5,11.71c-0.43,1.03-2.93,2.28-2.23,3.83
				c-0.88,1.09-0.82,1.45-1.43,2.56c-0.41,0.68-1.79,1.29-2.52,1.51l0.11-0.35c0.64-0.22,1.46-0.51,1.95-1.1
				c0.39-0.5,0.45-1.3,0.84-1.8c0.22-0.52,0.58-0.58,0.62-1.11c-0.78-0.32-1.48,0.78-2.06,1.27c-0.57,0.49-1.32,1.06-2.06,1.36
				c-0.82,0.3-1.92,0.66-2.82,0.78c-1.08,0.1-2.97-1-2.44-2.21c0.24,0.46,0.12,0.89,0.62,1.29c0.34,0.29,0.96,0.33,1.49,0.37
				c1.87,0.13,3.18-0.75,4.68-1.8c0.38-0.33,0.84-0.56,1.22-0.89c0.77-0.83,1.63-1.65,2.41-2.49C50.29,12.42,50.79,11.75,51.5,11.71
				 M72.05,8.99c0.83,0.94,0.7,1.55,1.16,2.65c0.14,0.54,0.64,1.11,0.41,1.71l-0.7-0.14c-0.48-0.83-0.28-1.17-0.41-1.8
				c-0.2-0.9-0.86-1.65-0.81-2.45L72.05,8.99z M70.96,6.7l0.28,1.08l-0.36-0.02c-0.24-0.37-0.31-0.64-0.28-1.08L70.96,6.7z
				 M71.03,4.49l0.27,0.02l-0.39,1.74l-0.34-0.2C70.61,5.43,70.64,4.99,71.03,4.49 M72.05,2.7l0.44,0.03l0.41,0.56l0.53,0.12
				c-0.42,0.86-1.3,0.71-1.88,0.13l0.13-0.61L72.05,2.7z M69.04,2.31L69.03,2.4l-0.18-0.01L69.04,2.31z M72.27,2.1l-0.86,0.83
				L69.4,2.34l0.06,0.36l-0.39,0.41c0.15,0.37,0.31,0.64,0.75,0.76l-0.21-0.81l1.51,0.11c0.14,0.63-0.71,1.19-0.94,1.88
				c-0.19,0.25-0.09,1.32-0.04,1.86c0.05,0.53,0.55,1.1,0.87,1.65c0.32,0.55,1.01,2.19,1.06,2.73l-0.98-0.07
				c-0.16-0.28-0.31-0.64-0.48-0.83c-0.32-0.46-0.77-0.49-0.91-1.04c-0.23-0.55-0.47-2.33-0.89-2.63l0.33,1.7
				c-0.9,0.2-1.66-1.8-1.43-2.49c0.06-0.79,0.8-1.27,1.28-1.77l-0.43-1.53C68,3.13,68.5,3.6,68.63,4.23
				c-0.46,0.23-1.21,0.71-1.43,1.32c-0.3,0.51,0.29,2.32,0.7,2.79c0.25,0.28,0.68,0.49,0.93,0.78c0.33,0.37,0.48,0.74,0.81,1.2
				c0.07,0.18,0.52,0.22,0.69,0.4c0.25,0.28,0.3,0.73,0.55,1.1c0.97,0.07,1.03,0.6,1.5,1.43c0.07,0.27,0.33,0.46,0.4,0.73
				l-0.51,0.94c-0.6-0.31-0.7-1.38-1.2-1.94c-0.25-0.28-0.78-0.32-0.94-0.51c-0.34-0.29-0.49-0.65-0.74-0.93
				c-0.33-0.38-1.04-0.52-1.28-0.8c-0.42-0.38-0.47-0.92-0.72-1.2c-0.4-0.65-0.58-1.99-1.12-1.94c0.05,0.53,0.39,0.91,0.61,1.55
				c0.14,0.54,0.34,1.62,0.93,2.1c0.25,0.28,0.88,0.15,1.31,0.45c0.34,0.2,0.4,0.65,0.74,0.94c0.17,0.19,0.7,0.22,0.95,0.51
				c0.33,0.38,1.1,2.11,1.16,2.56l-0.46,0.14l-0.46,1.47l-0.36-0.02l-0.57-0.75l0.37-1.39l-0.44-0.03
				c-0.31-0.64-0.85-1.92-1.64-2.06c-0.43-0.21-0.82,0.21-1.26,0.09c-0.69-0.4-0.93-0.77-1.73-0.83l-0.89,1.26l-0.59-0.49l0.05-0.7
				l-0.44-0.12c-0.32-0.55,0.15-0.87,0.36-1.39l-0.84,0.47c-1.42-0.1-2.95,0.06-4.3,0.23c-0.53-0.04-0.9,0.11-1.34,0.08
				c-0.52-0.21-0.86-0.42-0.65-0.93c0.54-0.14,1.07-0.01,1.61-0.06c1.53-0.16,3.05-0.14,4.65-0.03c0.58-0.67,2.41-1.33,2.13-2.33
				l-0.62-0.13c0.03-0.44-0.03-0.89,0.18-1.23c0.23-0.78,1.25-1.33,1.03-2.05l-0.55,0.23l-0.16-0.28l0.78-2.16
				c0.46-0.23,0.95-0.91,1.49-0.87c0.54-0.14,1.05,0.34,1.69,0.03l0.04-0.53c0.74-0.39,1.13,0.52,1.86,0.31l0.14-0.7
				C71.64,0.9,72.59,1.23,72.27,2.1 M72.76,2.66c0.34,0.29,0.79,0.23,1.04,0.51c0.17,0.1,0.05,0.45,0.31,0.64
				c0.5,0.48,1.39,0.63,1.96,1.29l-0.02,0.26l-0.89,1.18c-0.69-0.31-1.77-0.21-1.48,0.78l1.25,0.09l-1.18,1.51
				c-0.44-0.03-0.78-0.32-0.93-0.78l1.05,0.34l0.29-0.33l0.02-0.26l-0.61-0.22l-0.3-0.73c0.2-0.34,0.33-0.86,0.87-0.91
				c0.46-0.23,0.79,0.14,1.27-0.27l-0.02-0.97l-0.86-0.5l-0.11,0.35l-2.66-0.36l-0.11,0.26c0.71,1.29,0.93,0.77,2.09,0.76
				l-1.17,1.42l0.15-0.79L71.5,5.41c-0.11,0.35-0.4,0.68-0.25,1.04c0.06,0.45,0.41,0.56,0.37,1.09l0.88,0.15l0.15,0.37L72.29,8.2
				l-0.13,0.52l1.17,1.23l0.2-0.34l0.16,0.28c-0.08,1.15,0.29,2.15,0.49,3.22c-0.57,0.49-1.22,0.8-1.27,1.59
				c0.95,0.42,1.93-0.84,2.93-1.04c0.9-0.2,1.3,0.54,2.18,0.77c0.44,0.12,1.25,0,1.76,0.39c0.25,0.28,0.3,0.82,0.63,1.2l-0.02,0.26
				c-0.38,0.33-0.57,0.49-0.7,1.01l0.33,0.37l0.62,0.04L80.8,18c-0.46,1.56-1.1,2.93-1.48,4.59c-0.22,0.52-0.43,2.27-0.89,2.59
				c-0.28,0.16-0.62-0.04-0.99,0.02c-0.54,0.05-1.06-0.07-1.52,0.07c-0.44-0.03-0.64,0.22-0.91,0.29c-0.27,0.07-0.61-0.22-0.88-0.24
				c-0.52-0.22-1.43,0.08-1.9,0.4c-0.44-0.12-0.63-0.04-1.08,0.1l0.12-0.43c-0.35-0.11-0.63,0.13-0.99,0.11
				c-0.26-0.02-0.52-0.21-0.7-0.14c-0.53-0.04-0.91,0.2-1.26,0.09c-0.43-0.21-0.58-0.66-0.83-0.85c-0.33-0.38-0.85-0.59-0.91-1.04
				c-0.22-0.63,0.25-0.95,0.37-1.48c0.13-0.61-0.36-1.17-0.59-1.72c-0.32-0.55-0.25-1.44-0.95-1.66c-0.43-0.21-1.07,0.01-1.52,0.07
				c-1.35,0.08-3.75,0-4.76-0.95l-0.64,0.22l-0.16-0.28l-0.53-0.04l-1.06,1.17l-0.03,0.44l0.52,0.21c0.28-0.25,0.8-1.27,1.06-1.16
				c-0.5,0.76-0.71,1.28-1.64,1.74l-0.07-0.27l-0.35-0.11l-0.08-0.18l0.22-0.52c-0.53-0.04-0.74,0.3-1.19,0.45
				c0.21-0.43,0.68-0.75,0.89-1.27c0.23-0.69-0.89-1.3-1.29-1.95l-0.26-0.02l-0.3,0.42c-0.78-0.32-1.1,0.45-1.59,0.95
				c-0.38,0.33-0.82,0.3-1.11,0.63c-0.55,0.23-0.69,0.92-1.17,1.33c-0.95,0.82-4.1,1.22-2.81,3.17l1.52,0.02l0.24,0.37l-0.44-0.03
				l-0.2,0.25l0.15,0.46l0.44,0.12l0.31-0.51c0.34,0.29,0.36,1.18,0.07,1.51l-0.24-0.37l-0.36,0.06l-0.19,0.16l-0.24-0.37
				c-0.36,0.06-0.54,0.14-0.84,0.47l0.14,0.54l0.72-0.13l0.6,0.4c-0.18,0.07-1.71,0.23-1.71,0.23c-0.35-0.11-0.51-0.3-0.87-0.33
				c-0.45-0.03-1.27,0.18-1.61-0.02c-0.43-0.21-0.22-0.64-0.48-0.74c-0.34-0.29-0.78-0.41-0.83-0.94c-0.05-0.53,0.25-0.96,0.45-1.3
				c0.25-0.96,0.48-1.74,0.55-2.7L45,19.65l0.17,0.19c-0.33,0.86-0.3,1.66-0.53,2.53c-0.23,0.78-0.7,1.1-0.4,1.92l0.35,0.11
				l0.19-0.16c0.03-0.44,0.15-0.88,0.68-0.75c-0.13,0.7-0.7,1.01-0.3,1.75l0.9-0.02L46,24.77l0.27-0.07
				c0.33,0.38,0.4,0.65,0.95,0.51c0.23-0.69,0.77-0.83,1.34-1.23L48,23.05c-0.44-0.03-0.72,0.13-1.1,0.37l0.02-0.26L47.14,23
				l-0.48-0.74l0.36-1.3c-0.9,0.03-0.52,1.03-1.25,1.24l-0.09-1.33l2.23-1.26l-0.04,0.53c1.6,0.11,2.42-1.34,3.21-2.43
				c1.43-0.08,1.7-1.3,2.55-2.04c0.78-0.92,2.13-1.09,3.29-1.01l0.71-1.19l-0.07,1.06l0.62,0.04l0.44-1.21l0.36-0.06l0.08,0.18
				c-0.39,0.5-0.42,0.85-0.46,1.47c0.92,0.95,2.14,1.3,3.48,1.31c0.72-0.13,1.7,0.03,2.03-0.83l-0.16-0.28l-2.34,0.28l-0.08-0.18
				l2.28-0.64c0.07-1.06-0.63-2.52-1.67-2.86c-0.7-0.22-1.79,0.05-2.43,0.19c-1.25,0-2.41,0.01-3.53,0.64
				c-0.84,0.47-0.97,1.08-1.37,1.68c-0.29,0.33-0.82,0.29-1.11,0.63c-0.47,0.32-0.69,0.92-1.08,1.34l-0.21-0.81
				c0.38-0.33,1.22-0.89,1.5-1.05c0.21-0.43,0.5-0.85,0.89-1.18c0.47-0.41,1.21-0.71,1.52-1.31c0.11-0.26,0.06-0.79,0.08-1.15
				c-0.26-0.1-0.6-0.39-0.95-0.42c-0.98-0.07-3.05,0.14-3.88,0.61c-0.54,0.14-0.84,0.56-1.3,0.71l0.02-0.35
				c0.54-0.14,0.85-0.65,1.48-0.78c0.74-0.39,1.64-0.42,2.62-0.44c1.09-0.19,2.21,0.33,3.37,0.33c0.72-0.04,1.36-0.26,2.16-0.2
				c0.9-0.11,2.21,0.33,3.22-0.04c0.37-0.15,0.58-0.58,0.95-0.73c0.07-0.97-0.22-1.96,0.38-2.8c-0.49-0.65-0.02-1.06,0.21-1.75
				c0.13-0.52,0-1.33,0.3-1.75c0.13-0.52,1.54-1.57,2.08-1.62c0.19-0.16,0.71,0.05,1.06,0.07l0.12-0.43l1.98-0.13l0.12-0.44
				c1-0.28,2.49,0.09,2.58,1.42C72.9,2.05,72.78,2.4,72.76,2.66z"/>
		</g>
	</g>
</g>
</svg>
