<svg id="Layer_2" data-name="Layer 2" xmlns="http://www.w3.org/2000/svg" viewBox="0 0 261.19 52.35"><defs><style>.cls-1{fill:#010101;}.cls-2{fill:#080808;fill-rule:evenodd;}</style></defs><polygon class="cls-1" points="196.03 25.12 198.1 25.12 199.63 30.02 199.65 30.02 201.19 25.12 203.26 25.12 203.26 31.58 202.02 31.58 202.02 26.25 202 26.25 200.26 31.58 199.03 31.58 197.29 26.25 197.27 26.27 197.27 31.58 196.03 31.58 196.03 25.12"/><rect class="cls-1" x="205.24" y="25.12" width="1.3" height="6.46"/><polygon class="cls-1" points="208.51 25.12 210.1 25.12 212.56 29.95 212.58 29.95 212.58 25.12 213.82 25.12 213.82 31.58 212.24 31.58 209.77 26.75 209.75 26.75 209.75 31.58 208.51 31.58 208.51 25.12"/><rect class="cls-1" x="215.89" y="25.12" width="1.29" height="6.46"/><path class="cls-1" d="M259.88,26.76a3.42,3.42,0,0,0-1.31-.28.91.91,0,0,0-1,.9c0,1.12,2.83.65,2.83,2.81,0,1.42-1.12,1.95-2.42,1.95a5.87,5.87,0,0,1-1.65-.24l.11-1.17a3.17,3.17,0,0,0,1.47.4c.48,0,1.14-.25,1.14-.84,0-1.23-2.83-.72-2.83-2.85,0-1.45,1.12-2,2.26-2a4.74,4.74,0,0,1,1.54.24Z" transform="translate(-37.35 -0.46)"/><polygon class="cls-1" points="224.88 26.14 223.09 26.14 223.09 25.12 227.96 25.12 227.96 26.14 226.17 26.14 226.17 31.58 224.88 31.58 224.88 26.14"/><polygon class="cls-1" points="228.78 25.12 232.6 25.12 232.6 26.14 230.08 26.14 230.08 27.73 232.38 27.73 232.38 28.75 230.08 28.75 230.08 30.56 232.62 30.56 232.62 31.58 228.78 31.58 228.78 25.12"/><path class="cls-1" d="M271.47,25.58h1.39c1.39,0,3.05,0,3.05,1.74a1.48,1.48,0,0,1-1.33,1.5v0c.35,0,.55.38.68.67l1,2.52h-1.45l-.77-2c-.19-.48-.36-.67-.9-.67h-.42V32h-1.29V25.58Zm1.29,2.75h.43c.64,0,1.37-.09,1.37-.89s-.72-.85-1.37-.85h-.43Z" transform="translate(-37.35 -0.46)"/><path class="cls-1" d="M280.82,26.76a3.42,3.42,0,0,0-1.31-.28.9.9,0,0,0-1,.9c0,1.12,2.83.65,2.83,2.81,0,1.42-1.12,1.95-2.42,1.95a6,6,0,0,1-1.66-.24l.12-1.17a3.17,3.17,0,0,0,1.46.4c.5,0,1.15-.25,1.15-.84,0-1.23-2.83-.72-2.83-2.85,0-1.45,1.12-2,2.26-2a4.78,4.78,0,0,1,1.54.24Z" transform="translate(-37.35 -0.46)"/><polygon class="cls-1" points="245.82 26.14 244.03 26.14 244.03 25.12 248.9 25.12 248.9 26.14 247.12 26.14 247.12 31.58 245.82 31.58 245.82 26.14"/><polygon class="cls-1" points="248.29 25.12 249.68 25.12 251.33 30.19 251.35 30.19 252.99 25.12 254.27 25.12 252.1 31.58 250.51 31.58 248.29 25.12"/><path class="cls-1" d="M295.37,25.46a3,3,0,0,1,3.16,3.33,3,3,0,0,1-3.16,3.35c-2.07,0-3.16-1.37-3.16-3.35A3,3,0,0,1,295.37,25.46Zm0,5.67c1.32,0,1.81-1.18,1.81-2.34s-.52-2.31-1.81-2.31-1.81,1.17-1.81,2.31S294.05,31.13,295.37,31.13Z" transform="translate(-37.35 -0.46)"/><polygon class="cls-1" points="196.03 33.62 197.33 33.62 197.33 36.4 199.66 33.62 201.25 33.62 198.59 36.66 201.36 40.08 199.66 40.08 197.35 37.08 197.33 37.08 197.33 40.08 196.03 40.08 196.03 33.62"/><path class="cls-1" d="M239.5,34.08h1.3v3.73c0,1.1.35,1.82,1.34,1.82s1.34-.72,1.34-1.82V34.08h1.29V38.2c0,1.73-1,2.44-2.63,2.44s-2.64-.71-2.64-2.44V34.08Z" transform="translate(-37.35 -0.46)"/><polygon class="cls-1" points="209.27 33.62 210.56 33.62 210.56 39.06 213 39.06 213 40.08 209.27 40.08 209.27 33.62"/><polygon class="cls-1" points="214.08 34.64 212.3 34.64 212.3 33.62 217.17 33.62 217.17 34.64 215.38 34.64 215.38 40.08 214.08 40.08 214.08 34.64"/><path class="cls-1" d="M255.29,34.08h1.3v3.73c0,1.1.35,1.82,1.34,1.82s1.34-.72,1.34-1.82V34.08h1.29V38.2c0,1.73-1,2.44-2.63,2.44s-2.64-.71-2.64-2.44V34.08Z" transform="translate(-37.35 -0.46)"/><path class="cls-1" d="M262.35,34.08h1.39c1.39,0,3,0,3,1.75a1.48,1.48,0,0,1-1.33,1.49v0c.36,0,.56.38.69.67l1,2.52h-1.44l-.78-2c-.18-.48-.35-.67-.89-.67h-.42v2.68h-1.29Zm1.29,2.76h.42c.64,0,1.37-.1,1.37-.9s-.72-.84-1.37-.84h-.42Z" transform="translate(-37.35 -0.46)"/><polygon class="cls-1" points="232.13 37.53 229.77 33.62 231.29 33.62 232.82 36.33 234.37 33.62 235.74 33.62 233.43 37.53 233.43 40.08 232.13 40.08 232.13 37.53"/><path class="cls-1" d="M225.12,26.49a15.89,15.89,0,0,0-14-8.32,16.18,16.18,0,0,0-3.86.47,15.89,15.89,0,0,0-12,13.94h0a14.66,14.66,0,0,0-.07,1.48,15.9,15.9,0,1,0,29.87-7.57ZM224.74,40a14.83,14.83,0,0,1-28.42-5.92c0-.46,0-.93.06-1.38A14.83,14.83,0,1,1,224.74,40Z" transform="translate(-37.35 -0.46)"/><path class="cls-1" d="M218.24,39a8.82,8.82,0,0,1-3.06,2.71l-1.68-3.21a5.08,5.08,0,0,1-7.42-4.5l0-.57-.91-.1a5.52,5.52,0,0,0-.05.71,5.83,5.83,0,0,0,4.77,5.73l-.19,2.81a5.71,5.71,0,0,1-.82-.18l-.31-.1-.48-.16-.34-.14-.42-.19c-.11,0-.22-.12-.33-.18s-.27-.14-.39-.22-.21-.14-.32-.21-.25-.16-.36-.25-.2-.17-.3-.25l-.34-.28-.27-.27-.31-.32a2.48,2.48,0,0,1-.25-.3l-.23-.27h0l-1.12.51a8.81,8.81,0,0,1-1.55-3.58,10.53,10.53,0,0,1-.19-2A9.94,9.94,0,0,1,207.73,25l.34.89a8.8,8.8,0,0,0-5.7,8.23,8.23,8.23,0,0,0,.61,3.22l.18-.06,1.32-.42a7.3,7.3,0,0,1-.53-2.74,7.22,7.22,0,0,1,7-7.21h.17a7.27,7.27,0,0,1,5.87,3l1.3-.89h0L221,27.12a12,12,0,0,0-21.89,6.94,12.55,12.55,0,0,0,.28,2.6A12,12,0,0,0,221,40.94Z" transform="translate(-37.35 -0.46)"/><path class="cls-1" d="M37.35,31.89v-.14h2a2.53,2.53,0,0,1,1.47.36,1.16,1.16,0,0,1,.5,1,1.28,1.28,0,0,1-.48,1,2.36,2.36,0,0,1-1.57.41,4.26,4.26,0,0,1-.51,0v1.35c0,.3.05.49.16.57a.88.88,0,0,0,.53.12v.15H37.35v-.15a1,1,0,0,0,.56-.17.92.92,0,0,0,.12-.58v-3.2c0-.3-.05-.49-.15-.56A.89.89,0,0,0,37.35,31.89Zm1.44,2.32a3.62,3.62,0,0,0,.49,0c.84,0,1.26-.37,1.26-1.12S40.08,32,39.15,32a.63.63,0,0,0-.3,0s-.06.11-.06.25Z" transform="translate(-37.35 -0.46)"/><path class="cls-1" d="M44.85,31.67H45l1.86,4.25a1.33,1.33,0,0,0,.3.51.51.51,0,0,0,.34.11v.15H45.6v-.15a1,1,0,0,0,.42-.06.23.23,0,0,0,.1-.22,1.36,1.36,0,0,0-.14-.47l-.3-.72H43.74l-.37.89,0,.14a.74.74,0,0,0,0,.12c0,.22.17.32.5.32v.15H42.35v-.15a.55.55,0,0,0,.48-.29,8.29,8.29,0,0,0,.46-.94Zm-1,3.09h1.73l-.86-2Z" transform="translate(-37.35 -0.46)"/><path class="cls-1" d="M48.56,36.54a.84.84,0,0,0,.51-.16c.12-.1.18-.36.18-.77v-3c0-.31-.06-.5-.16-.57a1,1,0,0,0-.53-.13v-.14H50l1.72,3.76,1.66-3.76h1.52v.14a.89.89,0,0,0-.54.15.77.77,0,0,0-.15.55v3.32a.6.6,0,0,0,.17.5.88.88,0,0,0,.52.13v.15H52.79v-.15a.84.84,0,0,0,.55-.15.79.79,0,0,0,.13-.54V32.4l-1.91,4.29h-.11l-1.87-4.12v3a1.25,1.25,0,0,0,.15.74.66.66,0,0,0,.53.18v.15h-1.7v-.15Z" transform="translate(-37.35 -0.46)"/><path class="cls-1" d="M58.48,31.67h.15l1.86,4.25a1.33,1.33,0,0,0,.3.51.51.51,0,0,0,.34.11v.15h-1.9v-.15a1,1,0,0,0,.42-.06.23.23,0,0,0,.1-.22,1.36,1.36,0,0,0-.14-.47l-.3-.72H57.37L57,36l0,.14a.74.74,0,0,0,0,.12c0,.22.17.32.5.32v.15H56v-.15a.55.55,0,0,0,.48-.29,8.29,8.29,0,0,0,.46-.94Zm-1,3.09h1.73l-.86-2Zm.76-3.46H58l1.11-1.1a.83.83,0,0,1,.16-.13.24.24,0,0,1,.16-.05.29.29,0,0,1,.19.06.23.23,0,0,1,.07.18.23.23,0,0,1-.07.17.57.57,0,0,1-.18.16Z" transform="translate(-37.35 -0.46)"/><path class="cls-1" d="M62.21,33l0-1.27h4.15l0,1.27h-.17a1.42,1.42,0,0,0-.35-.8,1.08,1.08,0,0,0-.68-.18h-.55v3.81a.81.81,0,0,0,.12.52.51.51,0,0,0,.35.15l.22,0v.15H63.27v-.15l.19,0a.51.51,0,0,0,.39-.17,1,1,0,0,0,.1-.56V32h-.51a.94.94,0,0,0-.79.27,1.47,1.47,0,0,0-.27.71Z" transform="translate(-37.35 -0.46)"/><path class="cls-1" d="M71.67,35.35V32.82a1.09,1.09,0,0,0-.18-.77.69.69,0,0,0-.51-.16v-.14h1.71v.14c-.3,0-.49.1-.57.25a1.42,1.42,0,0,0-.12.68v3.94h-.13l-3.3-4.07v2.92a1.19,1.19,0,0,0,.16.74.67.67,0,0,0,.53.19v.15h-1.7v-.15c.32,0,.52-.11.58-.26a1.59,1.59,0,0,0,.1-.67V32.29a1.35,1.35,0,0,0-.32-.32.52.52,0,0,0-.3-.08h-.06v-.14h1.23Z" transform="translate(-37.35 -0.46)"/><path class="cls-1" d="M73.8,36.54a.86.86,0,0,0,.55-.13.83.83,0,0,0,.13-.56V32.53a.66.66,0,0,0-.13-.47.76.76,0,0,0-.55-.17v-.14h2.13v.14c-.31,0-.5.07-.58.19a1,1,0,0,0-.11.51v3.26a.7.7,0,0,0,.17.56.79.79,0,0,0,.52.13v.15H73.8Zm.78-5.24h-.3l1.11-1.1a.83.83,0,0,1,.16-.13.24.24,0,0,1,.16-.05.29.29,0,0,1,.19.06.23.23,0,0,1,.07.18.23.23,0,0,1-.07.17.57.57,0,0,1-.18.16Z" transform="translate(-37.35 -0.46)"/><path class="cls-1" d="M77.17,36.54a.89.89,0,0,0,.52-.12c.11-.07.17-.26.17-.57V32.53A.64.64,0,0,0,77.7,32a1,1,0,0,0-.53-.13v-.14H79.3v.14a.79.79,0,0,0-.56.16.84.84,0,0,0-.13.54v1.49L80,32.81a3.83,3.83,0,0,0,.37-.4.5.5,0,0,0,.12-.29.2.2,0,0,0-.09-.17.83.83,0,0,0-.41-.06v-.14h2v.14a1.07,1.07,0,0,0-.6.15,2.47,2.47,0,0,0-.5.42l-1.45,1.43,1.73,1.85a5.72,5.72,0,0,0,.7.66.83.83,0,0,0,.47.14v.15H80v-.15l.38,0a.16.16,0,0,0,.14-.16c0-.19-.34-.62-1-1.29l-.73-.76-.19.17v1.37c0,.3.07.5.2.58a.94.94,0,0,0,.49.11v.15H77.17v-.15Z" transform="translate(-37.35 -0.46)"/><path class="cls-1" d="M41.52,43.36V40.83a1.09,1.09,0,0,0-.18-.77.69.69,0,0,0-.51-.16v-.14h1.71v.14a.67.67,0,0,0-.57.25,1.42,1.42,0,0,0-.12.68v3.94h-.13l-3.3-4.07v2.93a1.17,1.17,0,0,0,.16.73.67.67,0,0,0,.53.2v.14h-1.7v-.14c.32,0,.52-.12.58-.27a1.57,1.57,0,0,0,.1-.66V40.31a1.43,1.43,0,0,0-.32-.33.61.61,0,0,0-.3-.08h-.06v-.14h1.23Z" transform="translate(-37.35 -0.46)"/><path class="cls-1" d="M45.25,39.68h.16l1.85,4.25a1.65,1.65,0,0,0,.3.51.61.61,0,0,0,.35.12v.14H46v-.14a.81.81,0,0,0,.42-.07.23.23,0,0,0,.1-.22,1.73,1.73,0,0,0-.14-.47l-.31-.72H44.15l-.37.89s0,.09,0,.14a.57.57,0,0,0,0,.12c0,.22.16.33.5.33v.14H42.76v-.14a.55.55,0,0,0,.47-.3,6.86,6.86,0,0,0,.46-.94Zm-1,3.1H46l-.86-2ZM45,39.31h-.3l1.11-1.1.15-.13a.3.3,0,0,1,.16,0,.27.27,0,0,1,.19.06.24.24,0,0,1,.07.18.27.27,0,0,1-.06.17.77.77,0,0,1-.19.16Z" transform="translate(-37.35 -0.46)"/><path class="cls-1" d="M48.09,44.56a.77.77,0,0,0,.55-.19.88.88,0,0,0,.13-.57V40.6a.89.89,0,0,0-.1-.5.6.6,0,0,0-.4-.18l-.18,0v-.14h2.12a2.4,2.4,0,0,1,1.39.34,1.1,1.1,0,0,1,.49,1,1.09,1.09,0,0,1-.35.84,2,2,0,0,1-1,.41l1.48,1.82a1.67,1.67,0,0,0,.29.3,1,1,0,0,0,.41.13v.14h-1.2l-1.78-2.31-.41,0v1.45a.83.83,0,0,0,.13.5.79.79,0,0,0,.56.2v.14H48.09v-.14Zm1.44-2.44h.1c1.1,0,1.65-.35,1.65-1.06s-.41-1-1.25-1h-.1a.57.57,0,0,0-.32.06.29.29,0,0,0-.08.23v1.78Z" transform="translate(-37.35 -0.46)"/><path class="cls-1" d="M53.22,42.25a2.67,2.67,0,0,1,.66-1.85,2.23,2.23,0,0,1,1.77-.74,2.36,2.36,0,0,1,1.72.69,2.51,2.51,0,0,1,.7,1.88,2.59,2.59,0,0,1-.67,1.84,2.24,2.24,0,0,1-1.75.73,2.3,2.3,0,0,1-1.74-.7A2.54,2.54,0,0,1,53.22,42.25Zm.84,0a2.94,2.94,0,0,0,.42,1.66,1.41,1.41,0,0,0,2.31,0,2.73,2.73,0,0,0,.44-1.67,2.9,2.9,0,0,0-.43-1.69A1.34,1.34,0,0,0,55.64,40a1.38,1.38,0,0,0-1.14.58A2.82,2.82,0,0,0,54.06,42.23Z" transform="translate(-37.35 -0.46)"/><path class="cls-1" d="M58.42,39.76h2a3.45,3.45,0,0,1,2.17.61,2.25,2.25,0,0,1,.8,1.88A2.34,2.34,0,0,1,62.68,44a3,3,0,0,1-2.1.7H58.42v-.14a.93.93,0,0,0,.55-.17.79.79,0,0,0,.13-.53V40.6c0-.32-.06-.51-.17-.58a1.12,1.12,0,0,0-.51-.12v-.14Zm1.44,4.3a.32.32,0,0,0,.09.27.42.42,0,0,0,.29.08h.06c1.51,0,2.27-.72,2.27-2.16A2.2,2.2,0,0,0,62,40.64a2.4,2.4,0,0,0-1.76-.59c-.15,0-.25,0-.29.07a.29.29,0,0,0-.07.22v3.72Z" transform="translate(-37.35 -0.46)"/><path class="cls-1" d="M67.93,43.36V40.83a1.16,1.16,0,0,0-.17-.77.73.73,0,0,0-.51-.16v-.14H69v.14a.7.7,0,0,0-.57.25,1.55,1.55,0,0,0-.12.68v3.94h-.13L64.84,40.7v2.93a1.26,1.26,0,0,0,.15.73.67.67,0,0,0,.53.2v.14h-1.7v-.14c.33,0,.52-.12.59-.27a1.75,1.75,0,0,0,.1-.66V40.31a1.25,1.25,0,0,0-.33-.33.61.61,0,0,0-.3-.08h-.06v-.14h1.23Z" transform="translate(-37.35 -0.46)"/><path class="cls-1" d="M69.23,44.56a.89.89,0,0,0,.55-.14.82.82,0,0,0,.14-.56V40.54a.71.71,0,0,0-.13-.47.79.79,0,0,0-.56-.17v-.14h2.13v.14a.73.73,0,0,0-.57.19.92.92,0,0,0-.11.51v3.26a.73.73,0,0,0,.16.57.88.88,0,0,0,.52.13v.14H69.23ZM70,39.31h-.3l1.11-1.1.15-.13a.3.3,0,0,1,.16,0,.27.27,0,0,1,.19.06.24.24,0,0,1,.07.18.27.27,0,0,1-.06.17.77.77,0,0,1-.19.16Z" transform="translate(-37.35 -0.46)"/><path class="cls-1" d="M71.64,39.76h2.13v.14c-.3,0-.49.08-.57.19a1,1,0,0,0-.11.56V42h2.26V40.54c0-.28-.06-.45-.17-.52a1.07,1.07,0,0,0-.52-.12v-.14H76.8v.14a.76.76,0,0,0-.56.17.79.79,0,0,0-.13.53v3.32a.63.63,0,0,0,.15.5.93.93,0,0,0,.54.14v.14H74.66v-.14a1.09,1.09,0,0,0,.53-.12c.11-.08.16-.27.16-.58v-1.5H73.09v1.5a.75.75,0,0,0,.15.55.86.86,0,0,0,.53.15v.14H71.64v-.14a.83.83,0,0,0,.55-.16.94.94,0,0,0,.14-.6V40.54a.61.61,0,0,0-.17-.51,1,1,0,0,0-.52-.13v-.14Z" transform="translate(-37.35 -0.46)"/><path class="cls-1" d="M77.15,42.25a2.67,2.67,0,0,1,.66-1.85,2.2,2.2,0,0,1,1.77-.74,2.36,2.36,0,0,1,1.72.69,2.51,2.51,0,0,1,.7,1.88,2.59,2.59,0,0,1-.67,1.84,2.24,2.24,0,0,1-1.75.73,2.3,2.3,0,0,1-1.74-.7A2.54,2.54,0,0,1,77.15,42.25Zm.84,0a2.94,2.94,0,0,0,.42,1.66,1.35,1.35,0,0,0,1.18.62,1.37,1.37,0,0,0,1.13-.58,2.73,2.73,0,0,0,.44-1.67,3,3,0,0,0-.43-1.69A1.34,1.34,0,0,0,79.56,40a1.36,1.36,0,0,0-1.13.58A2.82,2.82,0,0,0,78,42.23Z" transform="translate(-37.35 -0.46)"/><path class="cls-1" d="M37.35,47.91v-.14h2a2.46,2.46,0,0,1,1.47.37,1.14,1.14,0,0,1,.5,1,1.31,1.31,0,0,1-.48,1,2.42,2.42,0,0,1-1.57.41l-.51,0v1.34c0,.3.05.5.16.57a1,1,0,0,0,.53.13v.14H37.35v-.14a1,1,0,0,0,.56-.18.9.9,0,0,0,.12-.58v-3.2c0-.3-.05-.49-.15-.56A.89.89,0,0,0,37.35,47.91Zm1.44,2.33.49,0c.84,0,1.26-.38,1.26-1.13s-.46-1.07-1.39-1.07c-.16,0-.26,0-.3,0s-.06.11-.06.24Z" transform="translate(-37.35 -0.46)"/><path class="cls-1" d="M41.38,52.57a.85.85,0,0,0,.55-.14.8.8,0,0,0,.14-.56V48.55a.71.71,0,0,0-.13-.47.79.79,0,0,0-.56-.17v-.14h2.13v.14a.73.73,0,0,0-.57.19.92.92,0,0,0-.11.51v3.26a.73.73,0,0,0,.16.57.88.88,0,0,0,.52.13v.14H41.38Zm.78-5.25h-.29L43,46.23a.64.64,0,0,1,.15-.14.3.3,0,0,1,.16-.05.24.24,0,0,1,.19.07.21.21,0,0,1,.07.17.27.27,0,0,1-.06.17.77.77,0,0,1-.19.16Z" transform="translate(-37.35 -0.46)"/><path class="cls-1" d="M43.78,51.24H44a1.67,1.67,0,0,0,1.55,1.28,1,1,0,0,0,.65-.23.79.79,0,0,0,.25-.62.84.84,0,0,0-.25-.62,5,5,0,0,0-.9-.61,3.27,3.27,0,0,1-1-.77A1.2,1.2,0,0,1,44,49a1.25,1.25,0,0,1,.36-.92,1.4,1.4,0,0,1,1-.36,1.77,1.77,0,0,1,.59.12,1.35,1.35,0,0,0,.42.13.21.21,0,0,0,.18-.07.37.37,0,0,0,.08-.18h.15L47,49.24h-.17a1.68,1.68,0,0,0-.46-.88,1.21,1.21,0,0,0-.93-.4.8.8,0,0,0-.54.18.65.65,0,0,0-.23.52.84.84,0,0,0,.31.6,4.6,4.6,0,0,0,.87.61,3.5,3.5,0,0,1,1.07.83,1.26,1.26,0,0,1,.25.76,1.24,1.24,0,0,1-.43.95,1.59,1.59,0,0,1-1.14.4,2,2,0,0,1-.72-.13,1.85,1.85,0,0,0-.45-.12q-.22,0-.24.24H44Z" transform="translate(-37.35 -0.46)"/><path class="cls-1" d="M47.45,52.57a.9.9,0,0,0,.53-.15c.11-.09.16-.29.16-.61V48.55c0-.25,0-.42-.17-.5a1,1,0,0,0-.52-.14v-.14h4l0,1h-.16a.93.93,0,0,0-.34-.63,1.68,1.68,0,0,0-.79-.13h-1c-.1,0-.16,0-.19.06a.43.43,0,0,0-.05.24V50H50a.66.66,0,0,0,.85-.69h.16V51h-.16a.81.81,0,0,0-.24-.55,1.23,1.23,0,0,0-.68-.15H48.9V52a1.93,1.93,0,0,0,0,.24.21.21,0,0,0,0,.14s.12.06.28.07l.45,0H50a2,2,0,0,0,1.15-.25,1.72,1.72,0,0,0,.55-.74h.16l-.33,1.28H47.45v-.14Z" transform="translate(-37.35 -0.46)"/><path class="cls-1" d="M51.86,52.57a.79.79,0,0,0,.51-.17c.12-.1.18-.35.18-.76v-3c0-.31,0-.5-.16-.57a1,1,0,0,0-.53-.13v-.14h1.46L55,51.53l1.66-3.76h1.52v.14a.79.79,0,0,0-.53.16.73.73,0,0,0-.15.54v3.32c0,.26.05.43.16.51a1.06,1.06,0,0,0,.52.13v.14H56.09v-.14a.89.89,0,0,0,.55-.16.78.78,0,0,0,.14-.54V48.43l-1.92,4.28h-.1L52.88,48.6v3a1.29,1.29,0,0,0,.15.75.67.67,0,0,0,.54.18v.14H51.86v-.14Z" transform="translate(-37.35 -0.46)"/><path class="cls-1" d="M62.38,51.38V48.84a1.11,1.11,0,0,0-.18-.77.69.69,0,0,0-.51-.16v-.14H63.4v.14a.67.67,0,0,0-.57.25,1.45,1.45,0,0,0-.12.68v3.95h-.13l-3.3-4.08v2.93a1.17,1.17,0,0,0,.16.73.67.67,0,0,0,.53.2v.14h-1.7v-.14c.33,0,.52-.12.58-.26a1.65,1.65,0,0,0,.1-.67V48.32a1.25,1.25,0,0,0-.32-.33.61.61,0,0,0-.3-.08h-.06v-.14H59.5Z" transform="translate(-37.35 -0.46)"/><path class="cls-1" d="M63.48,52.57a.85.85,0,0,0,.55-.14.81.81,0,0,0,.13-.56V48.55a.66.66,0,0,0-.13-.47.76.76,0,0,0-.55-.17v-.14h2.13v.14a.74.74,0,0,0-.58.19,1,1,0,0,0-.11.51v3.26a.77.77,0,0,0,.16.57.91.91,0,0,0,.53.13v.14H63.48Z" transform="translate(-37.35 -0.46)"/><path class="cls-1" d="M70.16,51.71l.13.13a2.27,2.27,0,0,1-.85.7,2.53,2.53,0,0,1-1.15.27,2.4,2.4,0,0,1-1.82-.7,2.53,2.53,0,0,1-.68-1.87,2.6,2.6,0,0,1,.69-1.83,2.36,2.36,0,0,1,1.83-.74,3.34,3.34,0,0,1,.84.11,3.24,3.24,0,0,0,.48.12.3.3,0,0,0,.32-.23h.15l.08,1.68H70a1.79,1.79,0,0,0-.58-1,1.54,1.54,0,0,0-1-.37,1.52,1.52,0,0,0-1.27.61,2.65,2.65,0,0,0-.49,1.7,2.4,2.4,0,0,0,.52,1.65,1.72,1.72,0,0,0,1.33.56A2.28,2.28,0,0,0,70.16,51.71Z" transform="translate(-37.35 -0.46)"/><path class="cls-1" d="M70.47,49.05l0-1.28h4.15l0,1.28h-.17a1.46,1.46,0,0,0-.35-.81,1.1,1.1,0,0,0-.68-.18H73v3.81a.79.79,0,0,0,.12.52.55.55,0,0,0,.35.16l.22,0v.14H71.53v-.14l.19,0a.57.57,0,0,0,.39-.18,1,1,0,0,0,.1-.56V48.06h-.52a.89.89,0,0,0-.78.28,1.43,1.43,0,0,0-.27.71Z" transform="translate(-37.35 -0.46)"/><path class="cls-1" d="M74.78,47.91v-.14h2v.14H76.6a.55.55,0,0,0-.31.08.22.22,0,0,0-.08.19.3.3,0,0,0,0,.12,1,1,0,0,0,.07.2l1.32,3,1.09-2.74a1.54,1.54,0,0,0,.13-.52.28.28,0,0,0-.1-.23.73.73,0,0,0-.44-.11v-.14h1.53v.14a.57.57,0,0,0-.38.13,1.42,1.42,0,0,0-.28.49L77.5,52.78h-.1l-1.83-4.09a1.92,1.92,0,0,0-.39-.64A.68.68,0,0,0,74.78,47.91Z" transform="translate(-37.35 -0.46)"/><path class="cls-1" d="M80,52.57a.83.83,0,0,0,.55-.14.8.8,0,0,0,.14-.56V48.55a.71.71,0,0,0-.13-.47.79.79,0,0,0-.56-.17v-.14h2.13v.14a.73.73,0,0,0-.57.19.92.92,0,0,0-.11.51v3.26a.73.73,0,0,0,.16.57.88.88,0,0,0,.52.13v.14H80Zm.79-5.25h-.3l1.11-1.09a.92.92,0,0,1,.15-.14A.3.3,0,0,1,81.9,46a.24.24,0,0,1,.19.07.21.21,0,0,1,.07.17.27.27,0,0,1-.06.17.77.77,0,0,1-.19.16Z" transform="translate(-37.35 -0.46)"/><path class="cls-2" d="M72.68,24.25l.36,0,.08.09-.51.94-.27,0a1.18,1.18,0,0,1,.34-1m-1.06-.07.44,0,.16.27c-.12.44-.23.78-.78.93l-.11-1ZM59.26,23.4c0,.79,0,1.42-.84,1.71l.43-1c-.85-.59-.92.47-1,1.08l.26.2-.73.21.3-.42-.42-.38c-.22-.72.87-1,1.42-1.14l-.07-.36-.32-.47-.91.21c.63-1.37,1.26-.09,1.85.39m13.36-.74.46,1.09c-.74.39-1.15-.26-1.1-1Zm.81-.13.26.11-.11.35-.27-.11ZM56.24,20.62v.09a2.09,2.09,0,0,0,.46,2.34l.52.21-.62,0c-.41-.55-1.45-2.31-.35-2.68m16.52-.08.18.1v.09L72.66,22,72.3,22a2.19,2.19,0,0,1,.46-1.47m-5.73-1,.17.1,0,.44-.27.07-.25-.19,0-.27Zm6.36-.26c0,.44-.17,1.23-.7,1.1.12-.44.17-1.23.7-1.1m.9-.12.08.1-.23.69Zm-7.7-1h.09l.12.89-.55.05,0-.8ZM54.26,17l.92.87a3.14,3.14,0,0,1-2,2.33l-.25,1.05.67.58c.19-.17.29-.34.48-.42s.45-.05.64-.22.43-1.11.87-.91c-.12.35-.59.76-.54,1.2,0,.62.63,1.28.67,1.91-.6-.31-.73-1-1-1.58l-.92.29c0,.71.3.9.52,1.54s-.14.7.44,1.36l.27,0,.21-.43.77.41,0-.53.58.57.61.22a5.85,5.85,0,0,1-1.25.09c-.81,0-1.53.16-1.92-.66-.32-.56-.18-1.26-.42-1.72C53,21.63,52,21.3,53,20c.56-.32,1.84-.76,1.73-1.74-.05-.54-.39-.74-.45-1.19m18.68,1c.4.65-.3,1.75-.52,2.44a8.26,8.26,0,0,1-.69,2.07H70.57c-.07-.27.05-.7,0-.88-.14-.46-.48-.75-.45-1.1a5.26,5.26,0,0,1,0-1.68Zm1-.73-.27,1.22-.27.07c-.33-.46-.16-1.51.54-1.29M46.33,15.42v.09l-.85.56c.21-.34.5-.68.85-.65m17.86,1.34.25.28,0,.26c-.66.49-.69.84-1.59,1l-.26-.19,0-.53-.17-.1a3,3,0,0,1-1.12.63c-.72.12-1.74-.57-2.44-.79-.44-.21-.79-.15-1.13-.44L58,16.5l-1.6-.12-.06-.53-.17-.1-1.7.14,0-.26A3.58,3.58,0,0,1,57.34,15c.87.32,1.69,1.36,2.66,1.6,1.93.49,2.5,0,4.19.12M79.4,16.4h.08c.15.45,0,.62-.25,1l-.27,0,.07-.88Zm-28-1.95a20.2,20.2,0,0,0-.6,2.25c0,.27.05.63,0,.89a8.86,8.86,0,0,0-1,.55c.21-.34.57-.49.78-.83.1-.17-.06-.45,0-.63,0-.43.23-.78.27-1.22a1.36,1.36,0,0,0-1,.11l0-.26c.55-.23,1-.81,1.58-.86m23.47,1.46.26.19v.09l-.57,1.73.28-.15.36-1.31.28-.07.16.19.72,0c.23.46.3.73.83.86l.29-.34c0-.7.6-.84,1.22-.8.27,1.17-.83,1.63-1.8,1.47l.16.28c.78.32,1.45-.34,2.25-.29.27,0,.6.4.86.5l-1.78,6.34L76.56,25a3,3,0,0,1,.3-1.75c.29-1.57,1.11-3.11,1.22-4.61l-.27.07-2,6.24L73.7,25c-.4-.74.33-2.19.56-2.88.3-1.75,1-3.29,1.33-5l-.19.17c-.33.94-.57,1.81-.91,2.85-.09.08,0,.62-.23.78s-.18,0-.36,0l0-.62-.6,2.08-.27.07c-.32-.55.09-1.32.31-1.83a9.64,9.64,0,0,1,.92-2.95c.13-.7,0-1.33.56-1.73m-1-.87.09.1-.14.7.44,0-.06.88-.28.16-.23-.55c-.47.41-1.05,1-1.66.76-.13-.71.32-.77.63-1.28a2.43,2.43,0,0,1,.32-.77Zm5.7.22.08.19-.28.15-.07-.27Zm-38-2.83v.09c-.33.77-.88,1-1.38,1.76-.47.41-.44,1.21-.74,1.72-.39-.92.58-1.91,1.25-2.57.29-.34.41-.86.87-1m.92-.38.08.09.31.74a6.05,6.05,0,0,1-.33,2.18c-.32.69-1,1.18-1,1.88,1,1,2.79-.25,3.72-.8l0,.26c-1,.55-2.33,1.43-3.57,1.25-1.93-.48-.43-2.77.59-3.32l0-.35-.34-.29c0-.44.19-1.49.56-1.64M41.75,12v.18l-.17-.11ZM79,15.31c-.21.52-.83.39-1.29.62s-.49.59-.68.84l-.35-.2-.2-.9-.35-.12-.39.42L74,15.06A2.84,2.84,0,0,1,76.53,14c.44,0,.59.48,1.11.7s1,.06,1.38.62m-13.3-2.52A2,2,0,0,1,67.08,15c-.11.26-.29.34-.31.6l.45-.06c.39-.5-.07-1.51.49-1.91s2,1.29,2.1,1.92a1.8,1.8,0,0,1-.26,1.13l-1.22-.44c.14.54.77.58,1.08,1.14.65.93.22,2,.14,3.1,0,.36.41.56.56.93s0,.61-.15,1l.23.55-.63,0,.06.36.45,0a1.87,1.87,0,0,1,1.29-.62l.46,1c-.56.4-.93.55-1.15,1.25l-1.14-.35-.12.43c-1.63.42-1-1.13-1.66-1.79l-.38.32H67.1c-.4-.65,0-1.06.21-1.67,0-.53-.12-.89-.09-1.33l.27-.07c.32.64.49,2.07,1.1,2.2-.06-.36-.11-1-.18-1.25-.21-.73-1.07-1.32-.75-2l.44,0c-.14-.46-.66-.76-.71-1.29a2.51,2.51,0,0,1,.1-1.41A3.65,3.65,0,0,0,66,18.12L65.44,18c-.39-.82.35-1.12.58-1.82-1.43-.1-1.42-2.75-.3-3.38m-15.65-1c-1.23,1.06-2.31,2.4-3.55,3.47,0-.72,1.18-1.52,1.75-2s1.1-1.69,1.8-1.46m1.43-.08c-.42,1-2.92,2.27-2.23,3.82a12.14,12.14,0,0,0-1.43,2.56,5.17,5.17,0,0,1-2.51,1.51l.11-.35a4.33,4.33,0,0,0,2-1.1c.4-.51.45-1.3.84-1.8.22-.52.58-.58.62-1.11-.78-.32-1.49.78-2.06,1.27a8.1,8.1,0,0,1-2.06,1.36,14.68,14.68,0,0,1-2.82.78c-1.08.1-3-1-2.44-2.21.24.46.12.9.63,1.29a2.77,2.77,0,0,0,1.49.37c1.87.13,3.18-.76,4.68-1.8.38-.33.85-.56,1.22-.89.78-.83,1.64-1.65,2.41-2.49.39-.5.89-1.17,1.6-1.21M72.05,9c.83.94.7,1.55,1.16,2.64.14.54.64,1.11.42,1.71l-.71-.14c-.48-.82-.28-1.16-.41-1.79-.2-.9-.87-1.66-.81-2.45ZM71,6.7l.29,1.08-.36,0a1.54,1.54,0,0,1-.28-1.08ZM71,4.49l.27,0-.39,1.74-.35-.2A2.52,2.52,0,0,1,71,4.49m1-1.79.44,0,.41.56.53.13c-.42.85-1.3.7-1.89.13l.13-.61Zm-3-.39V2.4h-.18Zm3.23-.21-.86.82-2-.58.07.36-.39.41a1.08,1.08,0,0,0,.75.76l-.21-.81,1.51.11c.14.63-.71,1.19-.93,1.88a4.29,4.29,0,0,0,0,1.85A5.08,5.08,0,0,0,71,8.56a11.56,11.56,0,0,1,1.06,2.73l-1-.07a5.71,5.71,0,0,0-.47-.83c-.33-.47-.77-.5-.91-1S69.24,7,68.82,6.73l.33,1.7c-.91.2-1.66-1.8-1.43-2.49,0-.8.8-1.27,1.28-1.77l-.43-1.53c-.57.49-.07,1,.06,1.59A3,3,0,0,0,67.2,5.55c-.3.51.29,2.32.7,2.79.25.28.68.49.93.78a13.86,13.86,0,0,1,.81,1.2c.07.19.52.22.69.4s.3.73.54,1.1c1,.07,1,.61,1.51,1.44.07.27.33.46.4.73l-.52.94c-.6-.31-.7-1.38-1.2-1.94-.25-.28-.78-.32-1-.51a6.65,6.65,0,0,1-.73-.94c-.34-.37-1-.51-1.29-.8-.42-.38-.47-.91-.72-1.2-.4-.64-.57-2-1.11-1.93a7.44,7.44,0,0,0,.6,1.54,4.11,4.11,0,0,0,.93,2.1c.25.29.88.15,1.31.45s.4.65.73.94c.17.18.7.22,1,.5a9.78,9.78,0,0,1,1.16,2.56l-.46.15L71,17.32l-.35,0-.58-.75.37-1.39-.44,0c-.32-.64-.85-1.92-1.65-2.06-.43-.21-.81.2-1.25.08-.69-.4-.93-.77-1.73-.82l-.89,1.26-.59-.48L64,12.4l-.44-.12c-.32-.55.15-.87.36-1.39l-.83.48a22.72,22.72,0,0,0-4.31.23c-.53,0-.89.11-1.34.08-.52-.21-.87-.42-.65-.93a10.85,10.85,0,0,1,1.61-.07,27.72,27.72,0,0,1,4.65,0c.58-.66,2.41-1.33,2.12-2.32l-.61-.14A2.66,2.66,0,0,1,64.7,7c.23-.78,1.25-1.33,1-2l-.55.22L65,4.87l.78-2.16c.46-.24,1-.91,1.49-.87.54-.14,1,.34,1.69,0l0-.53c.74-.39,1.12.52,1.85.3L71,1c.63,0,1.58.28,1.26,1.15m.49.56c.34.29.79.23,1,.52.17.1.06.45.31.64.5.48,1.39.63,2,1.29l0,.26-.89,1.18c-.69-.32-1.77-.21-1.48.78l1.24.09L73.75,8.93a1,1,0,0,1-.92-.78l1,.34.29-.33,0-.26-.62-.22L73.27,7c.2-.34.33-.87.87-.91.46-.24.79.14,1.26-.27l0-1-.86-.5-.11.35-2.65-.36-.11.25c.71,1.29.93.78,2.09.77L72.57,6.72l.14-.78L71.5,5.41c-.11.34-.4.68-.25,1s.41.56.37,1.09l.88.15.16.37-.37.14-.13.53L73.33,10l.2-.34.16.28a12.42,12.42,0,0,0,.49,3.22c-.57.49-1.22.8-1.28,1.59,1,.42,1.94-.84,2.93-1s1.31.54,2.18.78c.44.12,1.25,0,1.76.38.25.29.3.82.63,1.2l0,.27a1.58,1.58,0,0,0-.69,1l.33.37.62.05.16.27c-.47,1.56-1.1,2.94-1.48,4.59-.22.52-.43,2.27-.9,2.59-.28.16-.62,0-1,0a9.36,9.36,0,0,0-1.53.07c-.44,0-.64.22-.91.29s-.61-.21-.87-.23a2.38,2.38,0,0,0-1.9.4,1.46,1.46,0,0,0-1.08.1l.11-.44c-.35-.11-.63.13-1,.11s-.52-.21-.7-.14c-.53,0-.91.2-1.26.09s-.57-.66-.83-.85c-.33-.38-.85-.59-.91-1-.22-.64.24-1,.37-1.48s-.36-1.17-.59-1.72-.26-1.44-1-1.66c-.43-.21-1.07,0-1.52.07-1.35.08-3.75,0-4.76-.95l-.64.22-.16-.28-.53,0-1.06,1.17,0,.44.52.21c.28-.25.8-1.27,1.06-1.16a3.82,3.82,0,0,1-1.64,1.74l-.07-.27-.35-.11-.08-.18.22-.52c-.53,0-.74.3-1.19.45.21-.43.68-.75.89-1.27.23-.69-.89-1.3-1.29-1.95l-.27,0-.3.42c-.78-.32-1.1.46-1.58,1-.38.32-.83.29-1.12.63-.55.23-.69.92-1.16,1.33-.95.82-4.1,1.22-2.81,3.17l1.52,0,.24.36-.45,0-.19.26.14.45.44.12.3-.51a1.32,1.32,0,0,1,.08,1.51l-.24-.37-.37.06-.19.16-.24-.37a1.25,1.25,0,0,0-.84.47l.15.55.72-.13.6.4c-.19.07-1.72.23-1.72.23-.35-.11-.51-.3-.87-.33s-1.26.18-1.6,0-.23-.64-.48-.74c-.34-.29-.78-.41-.83-.94a2.14,2.14,0,0,1,.44-1.3,14.38,14.38,0,0,0,.55-2.7l.28-.25.17.19a24.73,24.73,0,0,0-.53,2.53c-.24.78-.7,1.1-.4,1.92l.35.11.18-.17c0-.43.15-.87.68-.74-.13.69-.69,1-.3,1.74l.9,0L46,24.77l.27-.07c.33.38.4.65,1,.51.23-.69.77-.83,1.33-1.23l-.56-.93a1.64,1.64,0,0,0-1.09.37l0-.26.27-.16-.48-.74L47,21c-.9,0-.52,1-1.25,1.24l-.09-1.33,2.24-1.26,0,.53c1.6.11,2.41-1.34,3.2-2.43,1.44-.08,1.7-1.3,2.56-2a3.89,3.89,0,0,1,3.29-1l.7-1.2-.07,1.06.62,0,.44-1.2.36-.07.08.19A2.21,2.21,0,0,0,58.6,15a4.63,4.63,0,0,0,3.48,1.3c.72-.12,1.7,0,2-.83l-.16-.27-2.34.27-.08-.18,2.28-.63a3,3,0,0,0-1.67-2.87,5.51,5.51,0,0,0-2.43.19,6.74,6.74,0,0,0-3.52.64c-.84.47-1,1.08-1.37,1.67-.29.33-.82.3-1.12.63-.46.32-.68.92-1.07,1.34l-.21-.81a13.58,13.58,0,0,1,1.5-1.05,3.57,3.57,0,0,1,.89-1.17c.47-.41,1.21-.71,1.52-1.31a5.82,5.82,0,0,0,.08-1.15,3.52,3.52,0,0,0-1-.42,9.37,9.37,0,0,0-3.88.61c-.55.15-.84.57-1.3.71l0-.35c.55-.14.85-.65,1.49-.78a5.88,5.88,0,0,1,2.62-.44c1.08-.19,2.21.33,3.37.33a16.14,16.14,0,0,1,2.16-.21c.9-.11,2.21.34,3.21,0,.37-.15.58-.58.95-.73.06-1-.22-2,.37-2.8-.49-.66,0-1.07.21-1.76.13-.52,0-1.33.31-1.75A3.81,3.81,0,0,1,67,1.47c.19-.17.71.05,1.07.07l.12-.43,2-.13.12-.44c1-.28,2.5.09,2.58,1.43C72.9,2.05,72.78,2.4,72.76,2.66Z" transform="translate(-37.35 -0.46)"/></svg>